<svg width="71" height="71" viewBox="0 0 71 71" fill="none" xmlns="http://www.w3.org/2000/svg">
<path d="M68.1003 47.8743C64.2538 57.6211 57.5778 64.5876 47.8765 68.248C35.4713 72.9286 23.7014 71.2045 13.2002 63.1191C5.89914 57.4976 1.66562 49.8879 0.401411 40.6734C-1.03311 30.2174 1.34021 20.8002 8.11918 12.6777C14.0258 5.60032 21.6687 1.42457 30.8649 0.291578C40.9438 -0.950172 49.9284 1.78799 57.6926 8.24361C64.4488 13.8612 68.411 21.1632 69.9439 29.7845C71.0399 35.949 70.3654 41.9416 68.1003 47.8743ZM55.534 53.752C61.197 47.2958 63.419 39.8103 62.2695 31.3197C60.5641 18.723 49.9115 8.89314 36.6261 8.00234C29.2535 7.50801 22.6687 9.84681 17.0788 14.6742C6.79483 23.5555 5.07794 38.6506 11.3825 49.0366C17.4432 59.0209 26.4652 63.4695 38.0001 62.6901C44.9501 62.2205 50.7064 58.9977 55.534 53.752Z" fill="#0087C0"/>
<path d="M22.4471 44.445C20.3892 42.387 18.3849 40.4094 16.4103 38.4026C14.6317 36.5949 14.5963 34.3175 16.2816 32.7249C17.9633 31.1356 20.4101 31.2896 22.1485 33.0449C24.2549 35.1718 26.4276 37.2341 28.5057 39.3876C29.3852 40.2989 29.9888 40.3125 30.9017 39.3898C36.653 33.5772 42.4707 27.8301 48.2277 22.0232C49.213 21.0294 50.2724 20.548 51.6727 20.5785C53.418 20.6165 54.5695 21.4398 55.1694 23.0008C55.7384 24.4814 55.5738 25.8486 54.366 27.0492C47.0442 34.3276 39.7488 41.6325 32.4333 48.9174C30.7235 50.6201 28.7274 50.636 26.9796 48.958C25.4646 47.5036 24.0003 45.9965 22.4471 44.445Z" fill="#1E1E1E"/>
</svg>
