<svg width="38" height="38" viewBox="0 0 38 38" fill="none" xmlns="http://www.w3.org/2000/svg">
<path fill-rule="evenodd" clip-rule="evenodd" d="M38 19C38 29.4934 29.4934 38 19 38C8.50659 38 0 29.4934 0 19C0 8.50659 8.50659 0 19 0C29.4934 0 38 8.50659 38 19ZM26.6576 13.2424C27.2141 13.7989 27.2141 14.7011 26.6576 15.2576L17.1576 24.7576C16.6011 25.3141 15.6989 25.3141 15.1424 24.7576L11.3424 20.9576C10.7859 20.4011 10.7859 19.4989 11.3424 18.9424C11.8989 18.3859 12.8011 18.3859 13.3576 18.9424L16.15 21.7347L20.3962 17.4886L24.6424 13.2424C25.1989 12.6859 26.1011 12.6859 26.6576 13.2424Z" fill="#0087C0"/>
</svg>
