<svg width="34" height="34" viewBox="0 0 34 34" fill="none" xmlns="http://www.w3.org/2000/svg">
<path fill-rule="evenodd" clip-rule="evenodd" d="M4.49304 7.32648C2.83331 8.9862 2.83331 11.6575 2.83331 17.0001C2.83331 22.3427 2.83331 25.014 4.49304 26.6737C6.15277 28.3334 8.82406 28.3334 14.1666 28.3334H19.8333C25.1759 28.3334 27.8472 28.3334 29.5069 26.6737C31.1666 25.014 31.1666 22.3427 31.1666 17.0001C31.1666 11.6575 31.1666 8.9862 29.5069 7.32648C27.8472 5.66675 25.1759 5.66675 19.8333 5.66675H14.1666C8.82406 5.66675 6.15277 5.66675 4.49304 7.32648ZM26.3162 10.6532C26.6919 11.104 26.631 11.774 26.1802 12.1496L23.0685 14.7427C21.8128 15.7892 20.7951 16.6373 19.8968 17.215C18.9611 17.8168 18.0498 18.197 17 18.197C15.9501 18.197 15.0389 17.8168 14.1031 17.215C13.2049 16.6373 12.1872 15.7892 10.9315 14.7427L7.81978 12.1496C7.36899 11.774 7.30808 11.104 7.68374 10.6532C8.05941 10.2024 8.72938 10.1415 9.18018 10.5172L12.2386 13.0659C13.5603 14.1673 14.4779 14.9295 15.2526 15.4278C16.0026 15.9101 16.5111 16.072 17 16.072C17.4888 16.072 17.9974 15.9101 18.7473 15.4278C19.522 14.9295 20.4397 14.1673 21.7614 13.0659L24.8198 10.5172C25.2706 10.1415 25.9406 10.2024 26.3162 10.6532Z" fill="white"/>
</svg>
