<svg width="27" height="27" viewBox="0 0 27 27" fill="none" xmlns="http://www.w3.org/2000/svg">
<g clip-path="url(#clip0_23_70)">
<path d="M24.8906 0H2.10937C0.943945 0 0 0.943945 0 2.10937V24.8906C0 26.0561 0.943945 27 2.10937 27H24.8906C26.0561 27 27 26.0561 27 24.8906V2.10937C27 0.943945 26.0561 0 24.8906 0ZM16.4795 11.2113L16.3266 13.2311H14.2541V20.2447H11.6385V13.2311H10.241V11.2113H11.6385V9.85605C11.6385 9.26016 11.6543 8.3373 12.0867 7.7625C12.5455 7.15605 13.173 6.74473 14.2541 6.74473C16.0154 6.74473 16.7537 6.99785 16.7537 6.99785L16.4057 9.06504C16.4057 9.06504 15.8256 8.89629 15.2824 8.89629C14.7393 8.89629 14.2541 9.09141 14.2541 9.63457V11.2113H16.4795Z" fill="white"/>
</g>
<defs>
<clipPath id="clip0_23_70">
<rect width="27" height="27" fill="white"/>
</clipPath>
</defs>
</svg>
