<svg width="27" height="27" viewBox="0 0 27 27" fill="none" xmlns="http://www.w3.org/2000/svg">
<path d="M13.5 15.8724C14.8078 15.8724 15.8783 14.8071 15.8783 13.494C15.8783 12.9772 15.7096 12.4974 15.4301 12.1071C14.9977 11.5112 14.2963 11.1157 13.5053 11.1157C12.7143 11.1157 12.0129 11.506 11.5805 12.1071C11.301 12.4974 11.1322 12.9772 11.1322 13.494C11.1269 14.8071 12.1922 15.8724 13.5 15.8724Z" fill="white"/>
<path d="M18.6891 10.5943V8.60098V8.30566H18.3937L16.4004 8.31094L16.4109 10.5996L18.6891 10.5943Z" fill="white"/>
<path d="M24.8906 0H2.10938C0.943945 0 0 0.943945 0 2.10938V24.8906C0 26.0561 0.943945 27 2.10938 27H24.8906C26.0561 27 27 26.0561 27 24.8906V2.10938C27 0.943945 26.0561 0 24.8906 0ZM20.25 12.1131V17.6396C20.25 19.0793 19.0793 20.25 17.6396 20.25H9.36035C7.9207 20.25 6.75 19.0793 6.75 17.6396V12.1131V9.35508C6.75 7.91543 7.9207 6.74473 9.36035 6.74473H17.6396C19.0793 6.74473 20.25 7.91543 20.25 9.35508V12.1131Z" fill="white"/>
<path d="M17.1914 13.5007C17.1914 15.5362 15.5355 17.1921 13.5 17.1921C11.4645 17.1921 9.80859 15.5362 9.80859 13.5007C9.80859 13.0103 9.90879 12.5409 10.0828 12.1138H8.06836V17.6403C8.06836 18.3522 8.64844 18.9323 9.36035 18.9323H17.6396C18.3516 18.9323 18.9316 18.3522 18.9316 17.6403V12.1138H16.9172C17.0965 12.5409 17.1914 13.0103 17.1914 13.5007Z" fill="white"/>
</svg>
