<svg width="27" height="27" viewBox="0 0 27 27" fill="none" xmlns="http://www.w3.org/2000/svg">
<g clip-path="url(#clip0_23_75)">
<path d="M24.8906 0H2.10938C0.943945 0 0 0.943945 0 2.10938V24.8906C0 26.0561 0.943945 27 2.10938 27H24.8906C26.0561 27 27 26.0561 27 24.8906V2.10938C27 0.943945 26.0561 0 24.8906 0ZM9.72422 19.1479H7.09277V10.7262H9.72422V19.1479ZM8.33731 9.67148H8.31621C7.36172 9.67148 6.74473 9.02813 6.74473 8.21074C6.74473 7.37754 7.38281 6.75 8.35312 6.75C9.32344 6.75 9.91934 7.37754 9.94043 8.21074C9.9457 9.02285 9.32871 9.67148 8.33731 9.67148ZM20.25 19.1479H17.2652V14.792C17.2652 13.6529 16.8012 12.8725 15.7729 12.8725C14.9871 12.8725 14.5494 13.3998 14.349 13.9061C14.2752 14.0854 14.2857 14.3385 14.2857 14.5969V19.1479H11.3273C11.3273 19.1479 11.3643 11.4275 11.3273 10.7262H14.2857V12.0498C14.4598 11.4697 15.4037 10.6471 16.9119 10.6471C18.784 10.6471 20.25 11.86 20.25 14.465V19.1479Z" fill="white"/>
</g>
<defs>
<clipPath id="clip0_23_75">
<rect width="27" height="27" fill="white"/>
</clipPath>
</defs>
</svg>
