<svg width="74" height="74" viewBox="0 0 74 74" fill="none" xmlns="http://www.w3.org/2000/svg">
<path d="M19.3015 65.9475H18.5C15.593 65.9475 14.1395 65.9475 13.2364 65.0444C12.3333 64.1413 12.3333 62.6878 12.3333 59.7808V56.3524C12.3333 54.7536 12.3333 53.9543 12.744 53.2404C13.1546 52.5265 13.7741 52.1662 15.0131 51.4456C23.1699 46.7015 34.7539 44.0309 42.4854 48.6424C43.0049 48.9522 43.4721 49.3262 43.8714 49.7746C45.5921 51.7075 45.4667 54.6247 43.4835 56.3556C43.0647 56.7211 42.6183 56.9983 42.1688 57.0947C42.5382 57.0519 42.8923 57.0028 43.2301 56.9489C46.0402 56.5007 48.3992 54.999 50.5587 53.3677L56.1309 49.1584C58.0953 47.6745 61.0109 47.6742 62.9756 49.1577C64.7444 50.4933 65.2853 52.6924 64.167 54.4848C62.8629 56.5751 61.0256 59.2493 59.2615 60.8832C57.4947 62.5196 54.8645 63.9804 52.7172 65.0168C50.3386 66.1649 47.7109 66.8264 45.0381 67.2591C39.6173 68.1366 33.9677 68.0026 28.602 66.8972C25.5686 66.2722 22.4183 65.9475 19.3015 65.9475Z" fill="#0087C0"/>
<path d="M59.9111 23.6848C60.6922 22.2836 61.0828 21.583 61.6667 21.583C62.2506 21.583 62.6411 22.2836 63.4222 23.6848L63.6243 24.0473C63.8463 24.4455 63.9572 24.6446 64.1303 24.776C64.3033 24.9074 64.5188 24.9561 64.9499 25.0536L65.3423 25.1424C66.8591 25.4856 67.6175 25.6572 67.7979 26.2374C67.9784 26.8177 67.4613 27.4223 66.4273 28.6315L66.1597 28.9443C65.8659 29.2879 65.719 29.4597 65.6529 29.6723C65.5868 29.8848 65.609 30.114 65.6534 30.5725L65.6939 30.9899C65.8502 32.6032 65.9284 33.4099 65.456 33.7685C64.9836 34.1271 64.2735 33.8001 62.8533 33.1462L62.4859 32.9771C62.0823 32.7912 61.8806 32.6983 61.6667 32.6983C61.4528 32.6983 61.251 32.7912 60.8474 32.9771L60.48 33.1462C59.0598 33.8001 58.3497 34.1271 57.8773 33.7685C57.405 33.4099 57.4831 32.6032 57.6395 30.9899L57.6799 30.5725C57.7243 30.114 57.7465 29.8848 57.6804 29.6723C57.6143 29.4597 57.4674 29.2879 57.1736 28.9443L56.9061 28.6315C55.872 27.4223 55.355 26.8177 55.5354 26.2374C55.7158 25.6572 56.4742 25.4856 57.991 25.1424L58.3835 25.0536C58.8145 24.9561 59.03 24.9074 59.203 24.776C59.3761 24.6446 59.4871 24.4455 59.709 24.0474L59.9111 23.6848Z" fill="#0087C0"/>
<path d="M10.5778 23.6848C11.3589 22.2836 11.7494 21.583 12.3333 21.583C12.9172 21.583 13.3078 22.2836 14.0889 23.6848L14.291 24.0473C14.5129 24.4455 14.6239 24.6446 14.797 24.776C14.97 24.9074 15.1855 24.9561 15.6165 25.0536L16.009 25.1424C17.5258 25.4856 18.2842 25.6572 18.4646 26.2374C18.645 26.8177 18.128 27.4223 17.0939 28.6315L16.8264 28.9443C16.5326 29.2879 16.3856 29.4597 16.3196 29.6723C16.2535 29.8848 16.2757 30.114 16.3201 30.5725L16.3605 30.9899C16.5169 32.6032 16.595 33.4099 16.1227 33.7685C15.6503 34.1271 14.9402 33.8001 13.52 33.1462L13.1526 32.9771C12.749 32.7912 12.5472 32.6983 12.3333 32.6983C12.1194 32.6983 11.9177 32.7912 11.5141 32.9771L11.1467 33.1462C9.72648 33.8001 9.01639 34.1271 8.54401 33.7685C8.07162 33.4099 8.14979 32.6032 8.30613 30.9899L8.34657 30.5725C8.391 30.114 8.41321 29.8848 8.34711 29.6723C8.28102 29.4597 8.1341 29.2879 7.84025 28.9443L7.57273 28.6315C6.53867 27.4223 6.02164 26.8177 6.20208 26.2374C6.38251 25.6572 7.14091 25.4856 8.65771 25.1424L9.05013 25.0536C9.48116 24.9561 9.69667 24.9074 9.86971 24.776C10.0428 24.6446 10.1537 24.4455 10.3757 24.0474L10.5778 23.6848Z" fill="#0087C0"/>
<path fill-rule="evenodd" clip-rule="evenodd" d="M47 21.5C47 27.0228 42.5228 31.5 37 31.5C31.4772 31.5 27 27.0228 27 21.5C27 15.9772 31.4772 11.5 37 11.5C42.5228 11.5 47 15.9772 47 21.5ZM41.0303 18.4697C41.3232 18.7626 41.3232 19.2374 41.0303 19.5303L36.0303 24.5303C35.7374 24.8232 35.2626 24.8232 34.9697 24.5303L32.9697 22.5303C32.6768 22.2374 32.6768 21.7626 32.9697 21.4697C33.2626 21.1768 33.7374 21.1768 34.0303 21.4697L35.5 22.9393L37.7348 20.7045L39.9697 18.4697C40.2626 18.1768 40.7374 18.1768 41.0303 18.4697Z" fill="#0087C0"/>
</svg>
