<svg width="28" height="28" viewBox="0 0 28 28" fill="none" xmlns="http://www.w3.org/2000/svg">
<path d="M28 14C28 21.732 21.732 28 14 28C6.26801 28 0 21.732 0 14C0 6.26801 6.26801 0 14 0C21.732 0 28 6.26801 28 14Z" fill="white"/>
<path fill-rule="evenodd" clip-rule="evenodd" d="M14 7.35C14.5799 7.35 15.05 7.8201 15.05 8.4V13.5651L18.2425 16.7575C18.6525 17.1676 18.6525 17.8324 18.2425 18.2425C17.8324 18.6525 17.1676 18.6525 16.7575 18.2425L13.2575 14.7425C13.0606 14.5455 12.95 14.2785 12.95 14V8.4C12.95 7.8201 13.4201 7.35 14 7.35Z" fill="#0087C0"/>
</svg>
