<svg width="73" height="73" viewBox="0 0 73 73" fill="none" xmlns="http://www.w3.org/2000/svg">
<g clip-path="url(#clip0_18_441)">
<path d="M67.2969 0H5.70312C2.55215 0 0 2.55215 0 5.70312V67.2969C0 70.4479 2.55215 73 5.70312 73H67.2969C70.4479 73 73 70.4479 73 67.2969V5.70312C73 2.55215 70.4479 0 67.2969 0ZM26.2914 51.7701H19.1768V29.0004H26.2914V51.7701ZM22.5416 26.1488H22.4846C19.9039 26.1488 18.2357 24.4094 18.2357 22.1994C18.2357 19.9467 19.9609 18.25 22.5844 18.25C25.2078 18.25 26.8189 19.9467 26.876 22.1994C26.8902 24.3951 25.2221 26.1488 22.5416 26.1488ZM54.75 51.7701H46.6801V39.9932C46.6801 36.9135 45.4254 34.8033 42.6451 34.8033C40.5207 34.8033 39.3373 36.2291 38.7955 37.5979C38.5959 38.0826 38.6244 38.767 38.6244 39.4656V51.7701H30.6258C30.6258 51.7701 30.7256 30.8967 30.6258 29.0004H38.6244V32.5791C39.0949 31.0107 41.6471 28.7865 45.7248 28.7865C50.7863 28.7865 54.75 32.0658 54.75 39.1092V51.7701Z" fill="#0087C0"/>
</g>
<defs>
<clipPath id="clip0_18_441">
<rect width="73" height="73" fill="white"/>
</clipPath>
</defs>
</svg>
