<svg width="46" height="46" viewBox="0 0 46 46" fill="none" xmlns="http://www.w3.org/2000/svg">
<path fill-rule="evenodd" clip-rule="evenodd" d="M11.5 15.5392C11.5 9.0742 16.6487 3.83325 23 3.83325C29.3513 3.83325 34.5 9.0742 34.5 15.5392C34.5 21.9536 30.8296 29.4386 25.103 32.1153C23.768 32.7392 22.232 32.7392 20.897 32.1153C15.1704 29.4386 11.5 21.9536 11.5 15.5392ZM23 19.1666C25.1171 19.1666 26.8333 17.4503 26.8333 15.3333C26.8333 13.2162 25.1171 11.4999 23 11.4999C20.8829 11.4999 19.1667 13.2162 19.1667 15.3333C19.1667 17.4503 20.8829 19.1666 23 19.1666Z" fill="#0087C0"/>
<path fill-rule="evenodd" clip-rule="evenodd" d="M6.95239 27.8573C7.44542 28.4796 7.34066 29.3837 6.7184 29.8768C5.61888 30.7479 5.27087 31.5158 5.27087 32.1042C5.27087 32.5699 5.48225 33.1355 6.11544 33.7901C6.75511 34.4515 7.75453 35.1233 9.11487 35.7403C11.5188 36.8306 14.8418 37.6561 18.6875 38.0157V37.1355C18.6875 36.5714 19.0174 36.0595 19.531 35.8264C20.0447 35.5934 20.6472 35.6822 21.0716 36.0536L23.9466 38.5693C24.2586 38.8422 24.4375 39.2366 24.4375 39.6511C24.4375 40.0656 24.2586 40.46 23.9466 40.7329L21.0716 43.2486C20.6472 43.62 20.0447 43.7088 19.531 43.4758C19.0174 43.2427 18.6875 42.7308 18.6875 42.1667V40.9025C14.4999 40.5351 10.7511 39.6393 7.92736 38.3585C6.36747 37.6511 5.02303 36.7961 4.04888 35.7889C3.06826 34.775 2.39587 33.5302 2.39587 32.1042C2.39587 30.2829 3.48198 28.773 4.93297 27.6234C5.55523 27.1303 6.45936 27.2351 6.95239 27.8573ZM39.0477 27.8573C39.5407 27.2351 40.4448 27.1303 41.0671 27.6234C42.5181 28.773 43.6042 30.2829 43.6042 32.1042C43.6042 34.7455 41.3654 36.7245 38.7232 38.0485C35.9599 39.4331 32.1828 40.4132 27.9366 40.8435C27.1468 40.9236 26.4416 40.3481 26.3615 39.5583C26.2815 38.7684 26.8569 38.0632 27.6468 37.9832C31.6673 37.5757 35.0777 36.6595 37.4352 35.4781C39.9138 34.2361 40.7292 32.9794 40.7292 32.1042C40.7292 31.5158 40.3812 30.7479 39.2817 29.8768C38.6594 29.3837 38.5547 28.4796 39.0477 27.8573Z" fill="#0087C0"/>
</svg>
