<svg width="178" height="159" viewBox="0 0 178 159" fill="none" xmlns="http://www.w3.org/2000/svg">
<path d="M88.9855 45.7971C95.5489 45.7971 99.7102 50.1961 99.7102 58.8406C99.7102 63.8118 98.3332 68.337 95.9154 71.2857C104.397 72.9083 111.099 77.2313 114.783 80.8696C112.077 82.8986 106.667 87.2464 106.667 91.8841V92.3789C111.804 86.4957 116.103 84.9379 121.455 84.5296C119.947 82.4122 119.096 79.3727 119.096 76.0581C119.096 69.8341 122.093 66.6667 126.818 66.6667C131.544 66.6667 134.749 69.8341 134.749 76.0581C134.749 79.2822 133.888 82.2454 132.402 84.3535C132.507 84.3512 132.613 84.3504 132.72 84.3478C142.227 84.1159 146.729 92.7536 147.792 97.1015C140.546 105.217 137.067 105.797 131.85 108.116C127.676 109.971 113.106 110.242 106.343 110.145H71.3044C64.5411 110.242 49.971 109.971 45.7971 108.116C40.5797 105.797 37.1014 105.217 29.8551 97.1015C30.9179 92.7536 35.4203 84.1159 44.9275 84.3478C45.0337 84.3504 45.1394 84.3512 45.2446 84.3535C43.7589 82.2454 42.8986 79.282 42.8986 76.0581C42.8986 69.8341 46.1033 66.6667 50.8288 66.6667C55.5544 66.6667 58.5507 69.8341 58.5507 76.0581C58.5507 79.3728 57.7005 82.4122 56.1923 84.5296C61.5563 84.9388 65.8617 86.503 71.0145 92.4185V91.8841C71.0145 89.8551 68.9855 86.3768 62.3188 80.8696C69.116 75.4319 75.7638 72.5185 81.9628 71.3106C79.451 68.3625 77.971 63.8254 77.971 58.8406C77.971 50.1961 82.4221 45.7971 88.9855 45.7971Z" fill="white"/>
<path d="M84.6377 78.8406L88.4058 75.3623L92.4638 78.8406L90.7246 80.2899L93.0435 100.58L88.4058 105.507L83.7681 100.58L86.3768 80.2899L84.6377 78.8406Z" fill="#878787"/>
<path d="M48.6051 89.476L50.7246 87.5362L53.0072 89.476L52.029 90.2843L53.3333 101.6L50.7246 104.348L48.1159 101.6L49.5833 90.2843L48.6051 89.476Z" fill="#878787"/>
<path d="M125.707 89.476L127.826 87.5362L130.109 89.476L129.13 90.2843L130.435 101.6L127.826 104.348L125.217 101.6L126.685 90.2843L125.707 89.476Z" fill="#878787"/>
<path d="M67.8261 72.6093C65.9981 73.6293 64.16 74.8002 62.3177 76.1351L62.3188 76.0581C62.3188 72.3927 61.4396 69.0565 59.328 66.5823C57.1444 64.0237 54.0808 62.8986 50.8288 62.8986C47.5877 62.8986 44.5014 64.0139 42.2719 66.5285C41.2607 67.669 40.5124 69.0001 40 70.471V27.8261H67.8261V72.6093Z" fill="white"/>
<path d="M102.609 52.2181C101.988 50.0983 101.024 48.2116 99.675 46.631C97.055 43.561 93.3936 42.12 89.3756 42.033L88.9855 42.029C84.8255 42.029 80.9684 43.4521 78.1975 46.5772C76.5259 48.4624 75.4019 50.796 74.7826 53.459V13.913H102.609V52.2181Z" fill="white"/>
<path d="M137.391 69.7968C136.896 68.5918 136.23 67.492 135.375 66.5285C133.146 64.0138 130.06 62.8985 126.818 62.8985C123.566 62.8986 120.503 64.0237 118.319 66.5823C116.208 69.0565 115.328 72.3927 115.328 76.0581C115.328 76.1381 115.329 76.2181 115.33 76.2981C113.701 74.9524 111.766 73.5994 109.565 72.3545V0H137.391V69.7968Z" fill="white"/>
<path d="M177.391 84.058C177.391 103.908 137.681 120 88.6957 120C39.7104 120 0 103.908 0 84.058C0 83.934 0.00257205 83.8102 0.00566123 83.6866C12.2482 101.744 47.3285 109.855 88.6957 109.855C130.063 109.855 165.142 101.743 177.385 83.6866C177.388 83.8102 177.391 83.934 177.391 84.058Z" fill="#878787"/>
<path d="M4.15872 130.111H8.15256L12.293 143.215H8.66553L7.87775 140.65H4.41521L3.64575 143.215H0L4.15872 130.111ZM7.30982 138.25L6.15564 133.636L4.9465 138.25H7.30982Z" fill="white"/>
<path d="M23.2118 143.215V136.312L21.0316 141.167H19.1263L16.9462 136.312V143.215H13.3737V130.111H17.276L20.079 136.275L22.9003 130.111H26.7842V143.215H23.2118Z" fill="white"/>
<path d="M29.0104 143.215V130.111H34.6165C35.2516 130.111 35.8378 130.24 36.3752 130.498C36.9126 130.757 37.3767 131.107 37.7676 131.55C38.1584 131.981 38.4576 132.467 38.6653 133.009C38.8851 133.55 38.995 134.097 38.995 134.651C38.995 135.426 38.8118 136.159 38.4454 136.848C38.0912 137.537 37.5905 138.103 36.9431 138.546C36.308 138.976 35.563 139.192 34.7081 139.192H32.5829V143.215H29.0104ZM32.5829 136.054H34.4699C34.6165 136.054 34.7569 136.011 34.8913 135.925C35.0256 135.839 35.1355 135.691 35.221 135.482C35.3187 135.273 35.3676 134.996 35.3676 134.651C35.3676 134.282 35.3126 133.999 35.2027 133.802C35.105 133.593 34.9768 133.451 34.818 133.378C34.6714 133.292 34.5249 133.248 34.3783 133.248H32.5829V136.054Z" fill="white"/>
<path d="M40.4249 143.215V130.111H43.9973V140.078H49.8965V143.215H40.4249Z" fill="white"/>
<path d="M51.1416 143.215V130.111H54.714V143.215H51.1416Z" fill="white"/>
<path d="M56.9561 143.215V130.111H65.8781V133.248H60.5286V135.426H64.8888V138.343H60.5286V143.215H56.9561Z" fill="white"/>
<path d="M69.9174 130.111L72.244 135.463L74.6257 130.111H78.5096L74.0211 138.878V143.215H70.467V138.841L66.0518 130.111H69.9174Z" fill="white"/>
<path d="M82.9159 143.215V130.111H91.838V133.248H86.4884V135.426H90.8486V138.343H86.4884V143.215H82.9159Z" fill="white"/>
<path d="M95.4027 130.111H99.3965L103.537 143.215H99.9095L99.1217 140.65H95.6592L94.8897 143.215H91.244L95.4027 130.111ZM98.5538 138.25L97.3996 133.636L96.1905 138.25H98.5538Z" fill="white"/>
<path d="M103.366 136.552C103.366 135.753 103.513 134.971 103.806 134.208C104.111 133.433 104.551 132.732 105.125 132.104C105.699 131.477 106.395 130.978 107.214 130.609C108.044 130.228 108.979 130.037 110.017 130.037C111.263 130.037 112.35 130.301 113.278 130.831C114.206 131.347 114.896 132.036 115.348 132.898L112.618 134.854C112.459 134.424 112.227 134.091 111.922 133.858C111.629 133.624 111.305 133.464 110.951 133.378C110.609 133.279 110.273 133.23 109.943 133.23C109.431 133.23 108.985 133.335 108.606 133.544C108.24 133.741 107.934 134.005 107.69 134.337C107.458 134.67 107.281 135.039 107.159 135.445C107.049 135.851 106.994 136.257 106.994 136.663C106.994 137.118 107.061 137.555 107.195 137.974C107.33 138.392 107.525 138.767 107.782 139.099C108.038 139.419 108.35 139.672 108.716 139.856C109.095 140.041 109.516 140.133 109.98 140.133C110.31 140.133 110.646 140.084 110.988 139.985C111.33 139.875 111.641 139.702 111.922 139.469C112.203 139.235 112.417 138.921 112.563 138.527L115.476 140.281C115.22 140.921 114.792 141.468 114.194 141.923C113.595 142.379 112.917 142.729 112.16 142.975C111.403 143.209 110.652 143.326 109.907 143.326C108.942 143.326 108.056 143.135 107.25 142.754C106.456 142.36 105.766 141.843 105.18 141.204C104.606 140.551 104.16 139.825 103.843 139.026C103.525 138.213 103.366 137.389 103.366 136.552Z" fill="white"/>
<path d="M116.748 143.215V130.111H120.32V143.215H116.748Z" fill="white"/>
<path d="M122.562 143.215V130.111H126.135V140.078H132.034V143.215H122.562Z" fill="white"/>
<path d="M133.279 143.215V130.111H136.852V143.215H133.279Z" fill="white"/>
<path d="M149.225 133.248H145.487V143.215H141.915V133.248H138.159V130.111H149.225V133.248Z" fill="white"/>
<path d="M150.526 143.215V130.111H154.098V143.215H150.526Z" fill="white"/>
<path d="M165.611 140.078V143.215H156.34V130.111H165.446V133.248H159.913V135.094H164.64V138.01H159.913V140.078H165.611Z" fill="white"/>
<path d="M175.15 134.393C175.15 134.393 175.046 134.331 174.838 134.208C174.631 134.085 174.356 133.95 174.014 133.802C173.672 133.642 173.299 133.501 172.896 133.378C172.493 133.255 172.096 133.193 171.705 133.193C171.4 133.193 171.15 133.242 170.954 133.341C170.759 133.439 170.661 133.605 170.661 133.839C170.661 134.061 170.759 134.239 170.954 134.374C171.15 134.51 171.424 134.633 171.779 134.744C172.145 134.854 172.579 134.99 173.079 135.15C173.886 135.396 174.582 135.679 175.168 135.999C175.754 136.319 176.206 136.731 176.524 137.235C176.841 137.727 177 138.386 177 139.21C177 139.998 176.86 140.662 176.579 141.204C176.298 141.733 175.919 142.157 175.443 142.477C174.966 142.797 174.435 143.031 173.849 143.178C173.263 143.314 172.664 143.381 172.053 143.381C171.431 143.381 170.777 143.32 170.093 143.197C169.421 143.062 168.768 142.883 168.133 142.662C167.498 142.428 166.918 142.157 166.393 141.85L167.931 138.693C167.931 138.693 168.054 138.767 168.298 138.915C168.542 139.062 168.866 139.229 169.269 139.413C169.672 139.598 170.118 139.764 170.606 139.912C171.107 140.059 171.608 140.133 172.108 140.133C172.499 140.133 172.768 140.084 172.915 139.985C173.073 139.875 173.153 139.733 173.153 139.561C173.153 139.302 173.018 139.106 172.75 138.97C172.481 138.823 172.127 138.687 171.687 138.564C171.26 138.429 170.783 138.275 170.258 138.103C169.501 137.844 168.878 137.555 168.389 137.235C167.901 136.903 167.541 136.515 167.309 136.072C167.076 135.617 166.96 135.07 166.96 134.43C166.96 133.458 167.186 132.646 167.638 131.993C168.09 131.341 168.683 130.849 169.415 130.517C170.16 130.172 170.96 130 171.815 130C172.45 130 173.061 130.08 173.647 130.24C174.246 130.388 174.802 130.572 175.315 130.794C175.84 131.015 176.298 131.224 176.689 131.421L175.15 134.393Z" fill="white"/>
<path d="M38.0015 150.416V158.904H37.4715V151.67C37.4715 151.566 37.4775 151.456 37.4894 151.34L34.173 157.272C34.1174 157.376 34.038 157.428 33.9348 157.428H33.8395C33.7363 157.428 33.6569 157.376 33.6014 157.272L30.1956 151.328C30.2075 151.448 30.2135 151.562 30.2135 151.67V158.904H29.6776V150.416H30.1003C30.1559 150.416 30.1996 150.422 30.2313 150.434C30.2631 150.446 30.2948 150.478 30.3266 150.53L33.7264 156.433C33.7859 156.545 33.8375 156.665 33.8812 156.793C33.905 156.729 33.9308 156.667 33.9586 156.607C33.9864 156.543 34.0162 156.483 34.0479 156.427L37.3525 150.53C37.3842 150.478 37.416 150.446 37.4477 150.434C37.4835 150.422 37.5291 150.416 37.5847 150.416H38.0015Z" fill="#878787"/>
<path d="M48.8463 155.821L47.1315 151.532C47.072 151.392 47.0144 151.224 46.9589 151.028C46.9351 151.124 46.9093 151.216 46.8815 151.304C46.8537 151.388 46.8239 151.466 46.7922 151.538L45.0774 155.821H48.8463ZM50.71 158.904H50.2396C50.184 158.904 50.1384 158.89 50.1026 158.862C50.0669 158.83 50.0391 158.79 50.0193 158.742L49.0309 156.277H44.8928L43.9044 158.742C43.8885 158.786 43.8607 158.824 43.8211 158.856C43.7814 158.888 43.7337 158.904 43.6782 158.904H43.2137L46.6612 150.416H47.2625L50.71 158.904Z" fill="#878787"/>
<path d="M62.419 150.416V158.904H62.1332C62.0816 158.904 62.038 158.896 62.0022 158.88C61.9705 158.86 61.9387 158.828 61.907 158.784L56.4351 151.418C56.447 151.538 56.453 151.652 56.453 151.76V158.904H55.9171V150.416H56.2208C56.2763 150.416 56.318 150.424 56.3458 150.44C56.3776 150.452 56.4113 150.482 56.447 150.53L61.907 157.878C61.8951 157.758 61.8891 157.644 61.8891 157.536V150.416H62.419Z" fill="#878787"/>
<path d="M73.2601 155.821L71.5453 151.532C71.4857 151.392 71.4282 151.224 71.3726 151.028C71.3488 151.124 71.323 151.216 71.2952 151.304C71.2674 151.388 71.2376 151.466 71.2059 151.538L69.4911 155.821H73.2601ZM75.1237 158.904H74.6533C74.5978 158.904 74.5521 158.89 74.5164 158.862C74.4807 158.83 74.4529 158.79 74.433 158.742L73.4446 156.277H69.3065L68.3181 158.742C68.3023 158.786 68.2745 158.824 68.2348 158.856C68.1951 158.888 68.1475 158.904 68.0919 158.904H67.6275L71.0749 150.416H71.6763L75.1237 158.904Z" fill="#878787"/>
<path d="M86.8729 155.053V158.07C86.4522 158.37 86.0036 158.6 85.5273 158.76C85.051 158.92 84.5151 159 83.9197 159C83.2528 159 82.6535 158.898 82.1216 158.694C81.5897 158.486 81.1352 158.194 80.7581 157.818C80.3849 157.438 80.0972 156.98 79.8947 156.445C79.6963 155.909 79.597 155.313 79.597 154.657C79.597 154.001 79.6943 153.407 79.8888 152.875C80.0872 152.34 80.3691 151.884 80.7342 151.508C81.1034 151.128 81.548 150.836 82.068 150.632C82.588 150.424 83.1734 150.32 83.8244 150.32C84.146 150.32 84.4417 150.342 84.7116 150.386C84.9855 150.43 85.2395 150.496 85.4737 150.584C85.7079 150.668 85.9262 150.774 86.1287 150.902C86.3311 151.026 86.5256 151.17 86.7122 151.334L86.5455 151.598C86.4899 151.694 86.4065 151.716 86.2954 151.664C86.2358 151.64 86.1505 151.584 86.0394 151.496C85.9282 151.408 85.7754 151.316 85.5809 151.22C85.3864 151.124 85.1443 151.038 84.8545 150.962C84.5687 150.886 84.2194 150.848 83.8066 150.848C83.2588 150.848 82.7626 150.936 82.318 151.112C81.8774 151.288 81.5003 151.54 81.1868 151.868C80.8771 152.196 80.637 152.595 80.4663 153.067C80.2996 153.539 80.2162 154.069 80.2162 154.657C80.2162 155.253 80.2996 155.789 80.4663 156.265C80.637 156.741 80.8811 157.144 81.1987 157.476C81.5202 157.808 81.9092 158.062 82.3657 158.238C82.8222 158.414 83.3362 158.502 83.9078 158.502C84.1579 158.502 84.3881 158.486 84.5985 158.454C84.8128 158.422 85.0153 158.378 85.2058 158.322C85.4003 158.262 85.5869 158.19 85.7655 158.106C85.9481 158.018 86.1326 157.92 86.3192 157.812V155.527H84.7056C84.662 155.527 84.6243 155.513 84.5925 155.485C84.5647 155.457 84.5508 155.425 84.5508 155.389V155.053H86.8729Z" fill="#878787"/>
<path d="M97.7732 158.394L97.7613 158.904H92.7122V150.416H97.7613V150.926H93.3254V154.357H97.017V154.855H93.3254V158.394H97.7732Z" fill="#878787"/>
<path d="M111.754 150.416V158.904H111.224V151.67C111.224 151.566 111.23 151.456 111.242 151.34L107.926 157.272C107.87 157.376 107.791 157.428 107.688 157.428H107.592C107.489 157.428 107.41 157.376 107.354 157.272L103.949 151.328C103.96 151.448 103.966 151.562 103.966 151.67V158.904H103.43V150.416H103.853C103.909 150.416 103.952 150.422 103.984 150.434C104.016 150.446 104.048 150.478 104.079 150.53L107.479 156.433C107.539 156.545 107.59 156.665 107.634 156.793C107.658 156.729 107.684 156.667 107.712 156.607C107.739 156.543 107.769 156.483 107.801 156.427L111.105 150.53C111.137 150.478 111.169 150.446 111.201 150.434C111.236 150.422 111.282 150.416 111.338 150.416H111.754Z" fill="#878787"/>
<path d="M123.117 158.394L123.105 158.904H118.056V150.416H123.105V150.926H118.669V154.357H122.361V154.855H118.669V158.394H123.117Z" fill="#878787"/>
<path d="M135.276 150.416V158.904H134.991C134.939 158.904 134.895 158.896 134.86 158.88C134.828 158.86 134.796 158.828 134.764 158.784L129.293 151.418C129.304 151.538 129.31 151.652 129.31 151.76V158.904H128.775V150.416H129.078C129.134 150.416 129.175 150.424 129.203 150.44C129.235 150.452 129.269 150.482 129.304 150.53L134.764 157.878C134.753 157.758 134.747 157.644 134.747 157.536V150.416H135.276Z" fill="#878787"/>
<path d="M147.052 150.938H144.093V158.904H143.48V150.938H140.503V150.416H147.052V150.938Z" fill="#878787"/>
</svg>
