<svg width="105" height="50" viewBox="0 0 105 50" fill="none" xmlns="http://www.w3.org/2000/svg">
<path d="M36.3789 18.7227C39.0621 18.7227 40.7633 20.5211 40.7633 24.0551C40.7633 26.0874 40.2004 27.9374 39.212 29.1429C42.6792 29.8063 45.4192 31.5735 46.9252 33.061C45.8192 33.8904 43.6073 35.6679 43.6073 37.5639V37.7662C45.7076 35.361 47.465 34.7242 49.653 34.5572C49.0364 33.6916 48.6888 32.449 48.6888 31.0939C48.6888 28.5494 49.9137 27.2545 51.8457 27.2545C53.7776 27.2545 55.0877 28.5494 55.0877 31.0939C55.0877 32.412 54.7358 33.6234 54.1284 34.4852C54.1715 34.4843 54.2148 34.484 54.2582 34.4829C58.1449 34.3881 59.9856 37.9194 60.4201 39.6968C57.4577 43.0148 56.0357 43.2518 53.9027 44.1998C52.1963 44.9581 46.2398 45.0688 43.4749 45.0293H29.1505C26.3856 45.0688 20.4291 44.9582 18.7227 44.1998C16.5897 43.2518 15.1677 43.0148 12.2053 39.6968C12.6398 37.9194 14.4805 34.3881 18.3672 34.4829C18.4106 34.484 18.4538 34.4843 18.4968 34.4852C17.8894 33.6234 17.5377 32.4119 17.5377 31.0939C17.5377 28.5495 18.8479 27.2546 20.7797 27.2545C22.7117 27.2545 23.9366 28.5494 23.9366 31.0939C23.9366 32.449 23.589 33.6916 22.9724 34.5572C25.1653 34.7245 26.9255 35.364 29.032 37.7824V37.5639C29.032 36.7344 28.2025 35.3124 25.4771 33.061C28.2559 30.8379 30.9736 29.6469 33.5079 29.1531C32.481 27.9479 31.876 26.093 31.876 24.0551C31.876 20.5211 33.6957 18.7227 36.3789 18.7227Z" fill="#001757"/>
<path d="M34.6014 32.2315L36.1419 30.8095L37.8009 32.2315L37.0899 32.824L38.0379 41.1188L36.1419 43.1333L34.2459 41.1188L35.3124 32.824L34.6014 32.2315Z" fill="#0087C0"/>
<path d="M19.8706 36.5794L20.7372 35.7864L21.6703 36.5794L21.2704 36.9099L21.8036 41.5358L20.7372 42.6593L19.6707 41.5358L20.2706 36.9099L19.8706 36.5794Z" fill="#0087C0"/>
<path d="M51.3911 36.5794L52.2576 35.7864L53.1908 36.5794L52.7909 36.9099L53.3241 41.5358L52.2576 42.6593L51.1911 41.5358L51.791 36.9099L51.3911 36.5794Z" fill="#0087C0"/>
<path d="M27.7285 29.684C26.9812 30.101 26.2298 30.5797 25.4766 31.1254L25.4771 31.0939C25.4771 29.5955 25.1176 28.2316 24.2544 27.2201C23.3617 26.174 22.1092 25.7141 20.7797 25.7141C19.4547 25.7141 18.193 26.17 17.2815 27.1981C16.8681 27.6643 16.5622 28.2085 16.3527 28.8098V11.3758H27.7285V29.684Z" fill="#89CFE8"/>
<path d="M41.9483 21.3477C41.6947 20.4811 41.3004 19.7098 40.749 19.0636C39.6778 17.8085 38.181 17.2194 36.5384 17.1838L36.3789 17.1822C34.6782 17.1822 33.1014 17.764 31.9685 19.0416C31.2852 19.8123 30.8257 20.7663 30.5725 21.855V5.68791H41.9483V21.3477Z" fill="#0083BC"/>
<path d="M56.1681 28.5342C55.9655 28.0416 55.6931 27.592 55.3439 27.1981C54.4324 26.17 53.1707 25.7141 51.8457 25.7141C50.5162 25.7141 49.2637 26.174 48.371 27.2201C47.5078 28.2316 47.1483 29.5955 47.1483 31.0939C47.1483 31.1266 47.1487 31.1594 47.149 31.1921C46.4832 30.6419 45.6919 30.0888 44.7923 29.5798V0H56.1681V28.5342Z" fill="#085CB4"/>
<path d="M72.5208 34.3644C72.5208 42.4796 56.2865 49.0582 36.2604 49.0582C16.2343 49.0582 0 42.4796 0 34.3644C0 34.3138 0.0010515 34.2632 0.00231441 34.2126C5.00727 41.5946 19.3487 44.9108 36.2604 44.9108C53.172 44.9108 67.5132 41.5945 72.5182 34.2126C72.5195 34.2632 72.5208 34.3138 72.5208 34.3644Z" fill="#0087C0"/>
<path d="M67.814 11H72.4372L77.23 26H73.031L72.1191 23.0634H68.1109L67.2202 26H63L67.814 11ZM71.4616 20.3169L70.1256 15.0352L68.7259 20.3169H71.4616Z" fill="#001757"/>
<path d="M78.0569 26V11H88.3847V14.5915H82.1923V17.0845H87.2395V20.4225H82.1923V26H78.0569Z" fill="#001757"/>
<path d="M103.516 26V13.7887L98.0653 23.2746H97.1322L91.6607 13.7887V26H90.1762V11H91.7031L97.5775 21.2676L103.494 11H105V26H103.516Z" fill="#0087C0"/>
</svg>
