<svg width="181" height="168" viewBox="0 0 181 168" fill="none" xmlns="http://www.w3.org/2000/svg">
<path d="M88.9855 45.7971C95.5489 45.7971 99.7102 50.1961 99.7102 58.8406C99.7102 63.8118 98.3332 68.337 95.9154 71.2857C104.397 72.9083 111.099 77.2313 114.783 80.8696C112.077 82.8986 106.667 87.2464 106.667 91.8841V92.3789C111.804 86.4957 116.103 84.9379 121.455 84.5296C119.947 82.4122 119.096 79.3727 119.096 76.0581C119.096 69.8341 122.093 66.6667 126.818 66.6667C131.544 66.6667 134.749 69.8341 134.749 76.0581C134.749 79.2822 133.888 82.2454 132.402 84.3535C132.507 84.3512 132.613 84.3504 132.72 84.3478C142.227 84.1159 146.729 92.7536 147.792 97.1015C140.546 105.217 137.067 105.797 131.85 108.116C127.676 109.971 113.106 110.242 106.343 110.145H71.3044C64.5411 110.242 49.971 109.971 45.7971 108.116C40.5797 105.797 37.1014 105.217 29.8551 97.1015C30.9179 92.7536 35.4203 84.1159 44.9275 84.3478C45.0337 84.3504 45.1394 84.3512 45.2446 84.3535C43.7589 82.2454 42.8986 79.282 42.8986 76.0581C42.8986 69.8341 46.1033 66.6667 50.8288 66.6667C55.5544 66.6667 58.5507 69.8341 58.5507 76.0581C58.5507 79.3728 57.7005 82.4122 56.1923 84.5296C61.5563 84.9388 65.8617 86.503 71.0145 92.4185V91.8841C71.0145 89.8551 68.9855 86.3768 62.3188 80.8696C69.116 75.4319 75.7638 72.5185 81.9628 71.3106C79.451 68.3625 77.971 63.8254 77.971 58.8406C77.971 50.1961 82.4221 45.7971 88.9855 45.7971Z" fill="#001757"/>
<path d="M84.6377 78.8406L88.4058 75.3623L92.4638 78.8406L90.7246 80.2899L93.0435 100.58L88.4058 105.507L83.7681 100.58L86.3768 80.2899L84.6377 78.8406Z" fill="#0087C0"/>
<path d="M48.6051 89.476L50.7246 87.5362L53.0072 89.476L52.029 90.2843L53.3333 101.6L50.7246 104.348L48.1159 101.6L49.5833 90.2843L48.6051 89.476Z" fill="#0087C0"/>
<path d="M125.707 89.476L127.826 87.5362L130.109 89.476L129.13 90.2843L130.435 101.6L127.826 104.348L125.217 101.6L126.685 90.2843L125.707 89.476Z" fill="#0087C0"/>
<path d="M67.8261 72.6093C65.9981 73.6293 64.16 74.8002 62.3177 76.1351L62.3188 76.0581C62.3188 72.3927 61.4396 69.0565 59.328 66.5823C57.1444 64.0237 54.0808 62.8986 50.8288 62.8986C47.5877 62.8986 44.5014 64.0139 42.2719 66.5285C41.2607 67.669 40.5124 69.0001 40 70.471V27.8261H67.8261V72.6093Z" fill="#89CFE8"/>
<path d="M102.609 52.2181C101.988 50.0983 101.024 48.2116 99.675 46.631C97.055 43.561 93.3936 42.12 89.3756 42.033L88.9855 42.029C84.8255 42.029 80.9684 43.4521 78.1975 46.5772C76.5259 48.4624 75.4019 50.796 74.7826 53.459V13.913H102.609V52.2181Z" fill="#0083BC"/>
<path d="M137.391 69.7968C136.896 68.5918 136.23 67.492 135.375 66.5285C133.146 64.0138 130.06 62.8985 126.818 62.8985C123.566 62.8986 120.503 64.0237 118.319 66.5823C116.208 69.0565 115.328 72.3927 115.328 76.0581C115.328 76.1381 115.329 76.2181 115.33 76.2981C113.701 74.9524 111.766 73.5994 109.565 72.3545V0H137.391V69.7968Z" fill="#085CB4"/>
<path d="M177.391 84.058C177.391 103.908 137.681 120 88.6957 120C39.7104 120 0 103.908 0 84.058C0 83.934 0.00257205 83.8102 0.00566123 83.6866C12.2482 101.744 47.3285 109.855 88.6957 109.855C130.063 109.855 165.142 101.743 177.385 83.6866C177.388 83.8102 177.391 83.934 177.391 84.058Z" fill="#0087C0"/>
<path d="M8.15872 139.111H12.1526L16.293 152.215H12.6655L11.8778 149.65H8.41521L7.64575 152.215H4L8.15872 139.111ZM11.3098 147.25L10.1556 142.636L8.9465 147.25H11.3098Z" fill="#001757"/>
<path d="M27.2118 152.215V145.312L25.0316 150.167H23.1263L20.9462 145.312V152.215H17.3737V139.111H21.276L24.079 145.275L26.9003 139.111H30.7842V152.215H27.2118Z" fill="#001757"/>
<path d="M33.0104 152.215V139.111H38.6165C39.2516 139.111 39.8378 139.24 40.3752 139.498C40.9126 139.757 41.3767 140.107 41.7676 140.55C42.1584 140.981 42.4576 141.467 42.6653 142.009C42.8851 142.55 42.995 143.097 42.995 143.651C42.995 144.426 42.8118 145.159 42.4454 145.848C42.0912 146.537 41.5905 147.103 40.9431 147.546C40.308 147.976 39.563 148.192 38.7081 148.192H36.5829V152.215H33.0104ZM36.5829 145.054H38.4699C38.6165 145.054 38.7569 145.011 38.8913 144.925C39.0256 144.839 39.1355 144.691 39.221 144.482C39.3187 144.273 39.3676 143.996 39.3676 143.651C39.3676 143.282 39.3126 142.999 39.2027 142.802C39.105 142.593 38.9768 142.451 38.818 142.378C38.6714 142.292 38.5249 142.248 38.3783 142.248H36.5829V145.054Z" fill="#001757"/>
<path d="M44.4249 152.215V139.111H47.9973V149.078H53.8965V152.215H44.4249Z" fill="#001757"/>
<path d="M55.1416 152.215V139.111H58.714V152.215H55.1416Z" fill="#001757"/>
<path d="M60.9561 152.215V139.111H69.8781V142.248H64.5286V144.426H68.8888V147.343H64.5286V152.215H60.9561Z" fill="#001757"/>
<path d="M73.9174 139.111L76.244 144.463L78.6257 139.111H82.5096L78.0211 147.878V152.215H74.467V147.841L70.0518 139.111H73.9174Z" fill="#001757"/>
<path d="M86.9159 152.215V139.111H95.838V142.248H90.4884V144.426H94.8486V147.343H90.4884V152.215H86.9159Z" fill="#001757"/>
<path d="M99.4027 139.111H103.397L107.537 152.215H103.91L103.122 149.65H99.6592L98.8897 152.215H95.244L99.4027 139.111ZM102.554 147.25L101.4 142.636L100.19 147.25H102.554Z" fill="#001757"/>
<path d="M107.366 145.552C107.366 144.753 107.513 143.971 107.806 143.208C108.111 142.433 108.551 141.732 109.125 141.104C109.699 140.477 110.395 139.978 111.214 139.609C112.044 139.228 112.979 139.037 114.017 139.037C115.263 139.037 116.35 139.301 117.278 139.831C118.206 140.347 118.896 141.036 119.348 141.898L116.618 143.854C116.459 143.424 116.227 143.091 115.922 142.858C115.629 142.624 115.305 142.464 114.951 142.378C114.609 142.279 114.273 142.23 113.943 142.23C113.431 142.23 112.985 142.335 112.606 142.544C112.24 142.741 111.934 143.005 111.69 143.337C111.458 143.67 111.281 144.039 111.159 144.445C111.049 144.851 110.994 145.257 110.994 145.663C110.994 146.118 111.061 146.555 111.195 146.974C111.33 147.392 111.525 147.767 111.782 148.099C112.038 148.419 112.35 148.672 112.716 148.856C113.095 149.041 113.516 149.133 113.98 149.133C114.31 149.133 114.646 149.084 114.988 148.985C115.33 148.875 115.641 148.702 115.922 148.469C116.203 148.235 116.417 147.921 116.563 147.527L119.476 149.281C119.22 149.921 118.792 150.468 118.194 150.923C117.595 151.379 116.917 151.729 116.16 151.975C115.403 152.209 114.652 152.326 113.907 152.326C112.942 152.326 112.056 152.135 111.25 151.754C110.456 151.36 109.766 150.843 109.18 150.204C108.606 149.551 108.16 148.825 107.843 148.026C107.525 147.213 107.366 146.389 107.366 145.552Z" fill="#001757"/>
<path d="M120.748 152.215V139.111H124.32V152.215H120.748Z" fill="#001757"/>
<path d="M126.562 152.215V139.111H130.135V149.078H136.034V152.215H126.562Z" fill="#001757"/>
<path d="M137.279 152.215V139.111H140.852V152.215H137.279Z" fill="#001757"/>
<path d="M153.225 142.248H149.487V152.215H145.915V142.248H142.159V139.111H153.225V142.248Z" fill="#001757"/>
<path d="M154.526 152.215V139.111H158.098V152.215H154.526Z" fill="#001757"/>
<path d="M169.611 149.078V152.215H160.34V139.111H169.446V142.248H163.913V144.094H168.64V147.01H163.913V149.078H169.611Z" fill="#001757"/>
<path d="M179.15 143.393C179.15 143.393 179.046 143.331 178.838 143.208C178.631 143.085 178.356 142.95 178.014 142.802C177.672 142.642 177.299 142.501 176.896 142.378C176.493 142.255 176.096 142.193 175.705 142.193C175.4 142.193 175.15 142.242 174.954 142.341C174.759 142.439 174.661 142.605 174.661 142.839C174.661 143.061 174.759 143.239 174.954 143.374C175.15 143.51 175.424 143.633 175.779 143.744C176.145 143.854 176.579 143.99 177.079 144.15C177.886 144.396 178.582 144.679 179.168 144.999C179.754 145.319 180.206 145.731 180.524 146.235C180.841 146.727 181 147.386 181 148.21C181 148.998 180.86 149.662 180.579 150.204C180.298 150.733 179.919 151.157 179.443 151.477C178.966 151.797 178.435 152.031 177.849 152.178C177.263 152.314 176.664 152.381 176.053 152.381C175.431 152.381 174.777 152.32 174.093 152.197C173.421 152.062 172.768 151.883 172.133 151.662C171.498 151.428 170.918 151.157 170.393 150.85L171.931 147.693C171.931 147.693 172.054 147.767 172.298 147.915C172.542 148.062 172.866 148.229 173.269 148.413C173.672 148.598 174.118 148.764 174.606 148.912C175.107 149.059 175.608 149.133 176.108 149.133C176.499 149.133 176.768 149.084 176.915 148.985C177.073 148.875 177.153 148.733 177.153 148.561C177.153 148.302 177.018 148.106 176.75 147.97C176.481 147.823 176.127 147.687 175.687 147.564C175.26 147.429 174.783 147.275 174.258 147.103C173.501 146.844 172.878 146.555 172.389 146.235C171.901 145.903 171.541 145.515 171.309 145.072C171.076 144.617 170.96 144.07 170.96 143.43C170.96 142.458 171.186 141.646 171.638 140.993C172.09 140.341 172.683 139.849 173.415 139.517C174.16 139.172 174.96 139 175.815 139C176.45 139 177.061 139.08 177.647 139.24C178.246 139.388 178.802 139.572 179.315 139.794C179.84 140.015 180.298 140.224 180.689 140.421L179.15 143.393Z" fill="#001757"/>
<path d="M42.0015 159.416V167.904H41.4715V160.67C41.4715 160.566 41.4775 160.456 41.4894 160.34L38.173 166.272C38.1174 166.376 38.038 166.428 37.9348 166.428H37.8395C37.7363 166.428 37.6569 166.376 37.6014 166.272L34.1956 160.328C34.2075 160.448 34.2135 160.562 34.2135 160.67V167.904H33.6776V159.416H34.1003C34.1559 159.416 34.1996 159.422 34.2313 159.434C34.2631 159.446 34.2948 159.478 34.3266 159.53L37.7264 165.433C37.7859 165.545 37.8375 165.665 37.8812 165.793C37.905 165.729 37.9308 165.667 37.9586 165.607C37.9864 165.543 38.0162 165.483 38.0479 165.427L41.3525 159.53C41.3842 159.478 41.416 159.446 41.4477 159.434C41.4835 159.422 41.5291 159.416 41.5847 159.416H42.0015Z" fill="#0087C0"/>
<path d="M52.8463 164.821L51.1315 160.532C51.072 160.392 51.0144 160.224 50.9589 160.028C50.9351 160.124 50.9093 160.216 50.8815 160.304C50.8537 160.388 50.8239 160.466 50.7922 160.538L49.0774 164.821H52.8463ZM54.71 167.904H54.2396C54.184 167.904 54.1384 167.89 54.1026 167.862C54.0669 167.83 54.0391 167.79 54.0193 167.742L53.0309 165.277H48.8928L47.9044 167.742C47.8885 167.786 47.8607 167.824 47.8211 167.856C47.7814 167.888 47.7337 167.904 47.6782 167.904H47.2137L50.6612 159.416H51.2625L54.71 167.904Z" fill="#0087C0"/>
<path d="M66.419 159.416V167.904H66.1332C66.0816 167.904 66.038 167.896 66.0022 167.88C65.9705 167.86 65.9387 167.828 65.907 167.784L60.4351 160.418C60.447 160.538 60.453 160.652 60.453 160.76V167.904H59.9171V159.416H60.2208C60.2763 159.416 60.318 159.424 60.3458 159.44C60.3776 159.452 60.4113 159.482 60.447 159.53L65.907 166.878C65.8951 166.758 65.8891 166.644 65.8891 166.536V159.416H66.419Z" fill="#0087C0"/>
<path d="M77.2601 164.821L75.5453 160.532C75.4857 160.392 75.4282 160.224 75.3726 160.028C75.3488 160.124 75.323 160.216 75.2952 160.304C75.2674 160.388 75.2376 160.466 75.2059 160.538L73.4911 164.821H77.2601ZM79.1237 167.904H78.6533C78.5978 167.904 78.5521 167.89 78.5164 167.862C78.4807 167.83 78.4529 167.79 78.433 167.742L77.4446 165.277H73.3065L72.3181 167.742C72.3023 167.786 72.2745 167.824 72.2348 167.856C72.1951 167.888 72.1475 167.904 72.0919 167.904H71.6275L75.0749 159.416H75.6763L79.1237 167.904Z" fill="#0087C0"/>
<path d="M90.8729 164.053V167.07C90.4522 167.37 90.0036 167.6 89.5273 167.76C89.051 167.92 88.5151 168 87.9197 168C87.2528 168 86.6535 167.898 86.1216 167.694C85.5897 167.486 85.1352 167.194 84.7581 166.818C84.3849 166.438 84.0972 165.98 83.8947 165.445C83.6963 164.909 83.597 164.313 83.597 163.657C83.597 163.001 83.6943 162.407 83.8888 161.875C84.0872 161.34 84.3691 160.884 84.7342 160.508C85.1034 160.128 85.548 159.836 86.068 159.632C86.588 159.424 87.1734 159.32 87.8244 159.32C88.146 159.32 88.4417 159.342 88.7116 159.386C88.9855 159.43 89.2395 159.496 89.4737 159.584C89.7079 159.668 89.9262 159.774 90.1287 159.902C90.3311 160.026 90.5256 160.17 90.7122 160.334L90.5455 160.598C90.4899 160.694 90.4065 160.716 90.2954 160.664C90.2358 160.64 90.1505 160.584 90.0394 160.496C89.9282 160.408 89.7754 160.316 89.5809 160.22C89.3864 160.124 89.1443 160.038 88.8545 159.962C88.5687 159.886 88.2194 159.848 87.8066 159.848C87.2588 159.848 86.7626 159.936 86.318 160.112C85.8774 160.288 85.5003 160.54 85.1868 160.868C84.8771 161.196 84.637 161.595 84.4663 162.067C84.2996 162.539 84.2162 163.069 84.2162 163.657C84.2162 164.253 84.2996 164.789 84.4663 165.265C84.637 165.741 84.8811 166.144 85.1987 166.476C85.5202 166.808 85.9092 167.062 86.3657 167.238C86.8222 167.414 87.3362 167.502 87.9078 167.502C88.1579 167.502 88.3881 167.486 88.5985 167.454C88.8128 167.422 89.0153 167.378 89.2058 167.322C89.4003 167.262 89.5869 167.19 89.7655 167.106C89.9481 167.018 90.1326 166.92 90.3192 166.812V164.527H88.7056C88.662 164.527 88.6243 164.513 88.5925 164.485C88.5647 164.457 88.5508 164.425 88.5508 164.389V164.053H90.8729Z" fill="#0087C0"/>
<path d="M101.773 167.394L101.761 167.904H96.7122V159.416H101.761V159.926H97.3254V163.357H101.017V163.855H97.3254V167.394H101.773Z" fill="#0087C0"/>
<path d="M115.754 159.416V167.904H115.224V160.67C115.224 160.566 115.23 160.456 115.242 160.34L111.926 166.272C111.87 166.376 111.791 166.428 111.688 166.428H111.592C111.489 166.428 111.41 166.376 111.354 166.272L107.949 160.328C107.96 160.448 107.966 160.562 107.966 160.67V167.904H107.43V159.416H107.853C107.909 159.416 107.952 159.422 107.984 159.434C108.016 159.446 108.048 159.478 108.079 159.53L111.479 165.433C111.539 165.545 111.59 165.665 111.634 165.793C111.658 165.729 111.684 165.667 111.712 165.607C111.739 165.543 111.769 165.483 111.801 165.427L115.105 159.53C115.137 159.478 115.169 159.446 115.201 159.434C115.236 159.422 115.282 159.416 115.338 159.416H115.754Z" fill="#0087C0"/>
<path d="M127.117 167.394L127.105 167.904H122.056V159.416H127.105V159.926H122.669V163.357H126.361V163.855H122.669V167.394H127.117Z" fill="#0087C0"/>
<path d="M139.276 159.416V167.904H138.991C138.939 167.904 138.895 167.896 138.86 167.88C138.828 167.86 138.796 167.828 138.764 167.784L133.293 160.418C133.304 160.538 133.31 160.652 133.31 160.76V167.904H132.775V159.416H133.078C133.134 159.416 133.175 159.424 133.203 159.44C133.235 159.452 133.269 159.482 133.304 159.53L138.764 166.878C138.753 166.758 138.747 166.644 138.747 166.536V159.416H139.276Z" fill="#0087C0"/>
<path d="M151.052 159.938H148.093V167.904H147.48V159.938H144.503V159.416H151.052V159.938Z" fill="#0087C0"/>
</svg>
