<svg width="42" height="42" viewBox="0 0 42 42" fill="none" xmlns="http://www.w3.org/2000/svg">
<path d="M17.5658 9.3033L18.7016 11.3384C19.7265 13.175 19.3151 15.5843 17.7007 17.1987C17.7007 17.1987 15.7426 19.1568 19.2929 22.7071C22.8431 26.2573 24.8013 24.2993 24.8013 24.2993C26.4157 22.6849 28.825 22.2735 30.6616 23.2984L32.6967 24.4342C35.47 25.9819 35.7975 29.8712 33.3598 32.3088C31.8951 33.7736 30.1007 34.9133 28.1171 34.9885C24.7779 35.1151 19.107 34.27 13.4185 28.5815C7.72997 22.893 6.88488 17.2221 7.01147 13.8829C7.08666 11.8993 8.22641 10.1049 9.69116 8.64016C12.1288 6.20249 16.0181 6.53002 17.5658 9.3033Z" fill="white"/>
</svg>
