<svg width="17" height="16" viewBox="0 0 17 16" fill="none" xmlns="http://www.w3.org/2000/svg">
<path fill-rule="evenodd" clip-rule="evenodd" d="M15.5993 6.63252L14.1403 10.6407C13.1117 13.4668 12.5973 14.8798 11.8431 15.2813C11.1255 15.6633 10.2394 15.6633 9.52184 15.2813C8.7676 14.8798 8.25326 13.4668 7.22458 10.6407C7.05941 10.187 6.97683 9.96008 6.83819 9.77044C6.70384 9.58665 6.53144 9.42877 6.33074 9.30573C6.12365 9.17878 5.8759 9.10315 5.38039 8.9519C2.29435 8.00988 0.751331 7.53887 0.312849 6.84816C-0.104283 6.19109 -0.104283 5.37957 0.31285 4.72249C0.751331 4.03179 2.29435 3.56078 5.38039 2.61876L9.75733 1.28269C13.581 0.115525 15.4928 -0.468059 16.5019 0.456102C17.5111 1.38026 16.8738 3.13102 15.5993 6.63252ZM9.38883 6.92939C9.14126 6.70014 9.14349 6.33051 9.39383 6.10379L12.9728 2.86247C13.2231 2.63575 13.6267 2.6378 13.8743 2.86705C14.1219 3.09629 14.1197 3.46593 13.8693 3.69265L10.2904 6.93396C10.04 7.16068 9.63641 7.15863 9.38883 6.92939Z" fill="white"/>
</svg>
