<svg width="150" height="144" viewBox="0 0 150 144" fill="none" xmlns="http://www.w3.org/2000/svg">
<path d="M137.987 77.3627C139.426 77.9645 139.902 79.0379 139.894 80.4844C139.866 86.0727 139.96 91.6625 139.868 97.2495C139.719 106.427 136.986 114.777 131.541 122.201C126.678 128.831 120.286 133.593 113.033 137.293C111.879 137.882 110.701 138.423 109.548 139.012C108.597 139.498 107.665 139.458 106.73 139.002C100.988 136.201 95.5182 132.981 90.848 128.554C90.2621 127.999 89.6552 127.787 88.8456 127.788C66.2325 127.808 43.6193 127.8 21.0061 127.813C19.9761 127.814 19.216 127.511 18.7874 126.533C18.2387 125.28 18.8986 123.956 20.2451 123.675C20.6078 123.6 20.9878 123.583 21.36 123.581C23.146 123.572 24.9332 123.539 26.7175 123.594C27.5507 123.62 27.7999 123.35 27.797 122.517C27.7704 114.826 27.7834 107.135 27.783 99.4433C27.7815 74.2087 27.7794 48.9742 27.7771 23.7396C27.7769 21.8313 28.4008 21.2 30.2937 21.2C32.2526 21.1999 34.212 21.1734 36.17 21.2135C36.9013 21.2284 37.1204 20.958 37.1042 20.2578C37.0682 18.7031 37.0868 17.1469 37.0998 15.5914C37.114 13.9005 37.7745 13.2512 39.4577 13.2511C58.6141 13.2505 77.7705 13.2506 96.9269 13.2513C98.5517 13.2514 99.2405 13.9209 99.2542 15.5349C99.2679 17.1479 99.2871 18.7617 99.2537 20.3741C99.2401 21.0268 99.4805 21.2199 100.11 21.2103C102.069 21.1804 104.028 21.1961 105.987 21.2016C107.557 21.206 108.251 21.9 108.251 23.4643C108.253 35.7359 108.261 48.0075 108.233 60.2791C108.23 61.1719 108.459 61.5465 109.332 61.9492C111.523 62.9601 113.593 64.2308 115.722 65.3786C123.122 69.3684 130.526 73.3502 137.987 77.3627ZM47.7123 108.637C47.7127 105.354 47.7112 102.07 47.7145 98.7866C47.7162 97.1054 48.5409 96.183 50.2877 96.1957C57.9787 96.2522 65.6703 96.2193 73.3617 96.2194C75.2951 96.2194 75.9297 96.8577 75.93 98.8099C75.9312 106.732 75.9384 114.654 75.9173 122.575C75.9154 123.302 76.086 123.601 76.8757 123.589C79.6694 123.549 82.464 123.577 85.2582 123.568C85.4958 123.567 85.7733 123.666 85.973 123.441C85.9624 123.394 85.9638 123.362 85.9487 123.341C85.6121 122.874 85.2708 122.411 84.9361 121.942C79.7008 114.619 76.9686 106.423 76.7056 97.4576C76.5376 91.73 76.6885 85.9934 76.6621 80.261C76.6566 79.0824 77.1488 78.2989 78.1527 77.7538C79.848 76.8331 81.5314 75.8907 83.2207 74.9589C87.323 72.6962 91.4259 70.4343 95.661 68.0991C95.4202 68.0566 95.347 68.0326 95.2737 68.0323C91.7606 68.0174 88.2475 68.0091 84.7344 67.9891C83.2896 67.981 82.393 67.1245 82.3868 65.6989C82.3704 61.9829 82.3705 58.2667 82.3881 54.5508C82.3944 53.2166 83.2956 52.3234 84.6202 52.3187C88.3074 52.3056 91.9947 52.3055 95.6819 52.3188C97.1774 52.3242 98.0455 53.1938 98.0499 54.6883C98.0617 58.7039 98.0539 62.7196 98.0539 66.7631C99.642 65.8852 101.305 64.9172 103.015 64.0429C103.758 63.6636 104.027 63.2024 104.025 62.3662C104.002 50.4115 104.005 38.4567 104.033 26.502C104.035 25.6344 103.728 25.4588 102.932 25.4593C79.6558 25.4761 56.3801 25.4748 33.1043 25.4555C32.289 25.4548 31.9994 25.6774 32.0097 26.5243C32.0509 29.8941 32.0264 33.2648 32.0263 36.6352C32.0263 65.2402 32.0296 93.8452 32.0101 122.45C32.0095 123.29 32.1886 123.607 33.101 123.598C37.5944 123.552 42.0887 123.557 46.5822 123.595C47.4536 123.603 47.726 123.336 47.7198 122.464C47.6872 117.913 47.7095 113.362 47.7123 108.637ZM127.432 76.621C121.246 73.2944 115.056 69.9758 108.881 66.6277C108.301 66.313 107.871 66.3293 107.303 66.6461C98.7565 71.4131 90.2016 76.1649 81.6332 80.8921C81.0461 81.216 80.9207 81.606 80.9227 82.2048C80.938 86.8993 80.9337 91.594 80.9276 96.2886C80.9253 98.1003 80.9923 99.8993 81.2567 101.702C82.2462 108.445 84.7491 114.555 88.8775 119.968C93.8797 126.528 100.363 131.201 107.816 134.61C108.25 134.808 108.589 134.692 108.96 134.523C117.823 130.499 125.201 124.749 130.241 116.267C133.508 110.769 135.352 104.813 135.578 98.447C135.772 92.9816 135.61 87.5039 135.633 82.0317C135.636 81.3612 135.386 80.9829 134.811 80.6729C132.379 79.3615 129.965 78.0147 127.432 76.621ZM66.4497 100.319C61.9598 100.319 57.4699 100.33 52.9801 100.306C52.2912 100.303 52.0108 100.489 52.0133 101.225C52.0374 108.334 52.0422 115.443 52.0234 122.552C52.0214 123.333 52.261 123.595 53.0592 123.591C58.9017 123.562 64.7443 123.576 70.587 123.572C71.6975 123.572 71.7361 123.539 71.7365 122.395C71.7393 115.286 71.7273 108.177 71.7498 101.068C71.7518 100.416 71.5006 100.301 70.9396 100.311C69.501 100.337 68.0616 100.32 66.4497 100.319ZM42.7857 17.508C41.1555 17.5106 41.354 17.4101 41.352 18.9471C41.3515 19.2927 41.3535 19.6384 41.3547 19.984C41.3587 21.1988 41.3588 21.1998 42.5882 21.1998C59.2659 21.2001 75.9436 21.2 92.6213 21.2001C94.9849 21.2001 94.9849 21.2002 95.0035 18.7979C95.0135 17.5071 95.0135 17.5064 93.7651 17.5064C76.8282 17.5068 59.8913 17.5074 42.7857 17.508ZM93.6102 63.0866C93.611 61.1904 93.6047 59.2942 93.6175 57.398C93.6208 56.9095 93.5656 56.5676 92.9362 56.5752C91.069 56.598 89.2012 56.5896 87.3339 56.5714C86.8514 56.5667 86.6597 56.7595 86.6615 57.2302C86.6686 59.1263 86.6639 61.0224 86.6619 62.9185C86.6613 63.4822 86.902 63.7396 87.5017 63.731C89.2826 63.7058 91.0641 63.7223 92.8454 63.7212C93.1987 63.721 93.5626 63.7314 93.6102 63.0866Z" fill="#0087C0"/>
<path d="M75.9198 44.8816C75.7053 46.445 75.0188 47.1744 73.5525 47.1924C69.8657 47.2376 66.1776 47.2358 62.4907 47.1925C61.0465 47.1755 60.2579 46.2565 60.2561 44.7871C60.2517 41.1284 60.2519 37.4697 60.2575 33.8111C60.2598 32.2845 61.126 31.4112 62.6719 31.4062C66.2441 31.3947 69.8163 31.3946 73.3885 31.4056C75.0464 31.4106 75.9187 32.3125 75.9211 33.9995C75.9263 37.6005 75.9217 41.2015 75.9198 44.8816ZM65.4549 35.7805C64.7543 35.7021 64.4877 35.9876 64.5058 36.7142C64.5489 38.4414 64.5509 40.1712 64.5062 41.8983C64.4872 42.632 64.7541 42.8387 65.4554 42.8224C67.1828 42.7823 68.9119 42.789 70.6397 42.8176C71.2726 42.8281 71.5088 42.6112 71.4979 41.9681C71.4677 40.1828 71.4672 38.3962 71.4981 36.6109C71.5094 35.9575 71.2516 35.761 70.6293 35.7714C68.9591 35.7995 67.2881 35.7805 65.4549 35.7805Z" fill="#0087C0"/>
<path d="M90.2168 47.2174C88.4309 47.2169 86.7314 47.2234 85.032 47.2141C83.2053 47.2042 82.3812 46.3849 82.3799 44.5856C82.3774 41.0139 82.3769 37.4422 82.3825 33.8705C82.3849 32.3135 83.279 31.41 84.8475 31.4055C88.4192 31.3952 91.9909 31.3939 95.5626 31.4069C97.1712 31.4127 98.0489 32.3223 98.0514 33.9518C98.0568 37.5235 98.0549 41.0952 98.0524 44.6669C98.0513 46.3131 97.2343 47.1751 95.5742 47.2063C93.8178 47.2393 92.0603 47.2161 90.2168 47.2174ZM93.6134 40.7005C93.6129 39.3185 93.5981 37.9363 93.6188 36.5546C93.627 36.0102 93.4385 35.77 92.8703 35.7758C91.0567 35.7944 89.2426 35.7953 87.429 35.7748C86.8208 35.7679 86.632 36.0277 86.6396 36.6082C86.6629 38.3929 86.6683 40.1786 86.6367 41.963C86.6256 42.5924 86.8206 42.8375 87.4727 42.8204C88.8825 42.7835 90.2941 42.8212 91.7047 42.8072C93.912 42.7853 93.5809 43.101 93.6134 40.7005Z" fill="#0087C0"/>
<path d="M43.2013 31.4015C45.9058 31.4017 48.5239 31.3976 51.1421 31.4035C52.9934 31.4076 53.8045 32.2318 53.805 34.094C53.8061 37.604 53.8073 41.1141 53.8041 44.6241C53.8025 46.3401 53.015 47.1839 51.2836 47.1987C47.7163 47.2294 44.1485 47.2287 40.5811 47.206C39.0584 47.1964 38.1594 46.2995 38.1487 44.7741C38.1234 41.1492 38.1256 37.5238 38.1485 33.8989C38.1588 32.2828 39.0739 31.4199 40.6981 31.4033C41.5036 31.3951 42.3093 31.4017 43.2013 31.4015ZM47.7646 42.8093C47.9372 42.8092 48.1132 42.787 48.2818 42.8128C49.1843 42.9508 49.4105 42.5334 49.3804 41.6848C49.3214 40.0184 49.3409 38.3479 49.3736 36.68C49.3865 36.021 49.1872 35.7501 48.4913 35.766C46.766 35.8054 45.0391 35.8034 43.3135 35.7749C42.6591 35.764 42.3769 35.9656 42.389 36.6569C42.42 38.44 42.4143 40.2242 42.3894 42.0074C42.3811 42.6027 42.5964 42.8281 43.1946 42.8174C44.6613 42.7912 46.1288 42.8091 47.7646 42.8093Z" fill="#0087C0"/>
<path d="M75.9214 65.4644C75.7917 67.2433 75.0112 67.9915 73.3402 67.9932C69.7981 67.997 66.256 67.9962 62.714 67.9892C61.1249 67.9861 60.2627 67.1326 60.2583 65.5358C60.2482 61.9074 60.2495 58.2788 60.2591 54.6504C60.2631 53.1598 61.1273 52.3187 62.6446 52.3158C66.1578 52.309 69.6711 52.3126 73.1844 52.3138C75.1598 52.3144 75.9225 53.0916 75.9229 55.1033C75.9234 58.5302 75.9221 61.9571 75.9214 65.4644ZM64.5204 57.6908C64.5206 59.419 64.5396 61.1475 64.5111 62.8752C64.5007 63.5107 64.7276 63.7428 65.366 63.7326C67.1514 63.7039 68.9378 63.7032 70.7231 63.7331C71.3465 63.7436 71.5102 63.4911 71.502 62.9113C71.476 61.0683 71.4748 59.2244 71.5009 57.3814C71.5093 56.7893 71.3174 56.5621 70.7082 56.5717C68.9516 56.5992 67.1937 56.6063 65.4377 56.5647C64.7007 56.5472 64.4344 56.8364 64.5204 57.6908Z" fill="#0087C0"/>
<path d="M38.1467 87.0478C38.1415 83.4263 38.1354 79.8837 38.1385 76.341C38.1401 74.547 38.9368 73.7485 40.712 73.7475C44.2546 73.7456 47.7972 73.7434 51.3399 73.7503C52.9507 73.7534 53.8005 74.5968 53.8032 76.194C53.8092 79.7654 53.809 83.3368 53.8031 86.9083C53.8005 88.5351 52.9315 89.4096 51.2892 89.415C47.833 89.4264 44.3767 89.4209 40.9205 89.4185C39.157 89.4173 38.5095 88.8779 38.1467 87.0478ZM48.8926 85.1477C49.47 85.1027 49.3609 84.6606 49.3623 84.3054C49.3694 82.4913 49.3449 80.6769 49.3757 78.8633C49.3863 78.2382 49.2024 77.9909 48.5451 78.0039C46.7893 78.0386 45.0318 78.0393 43.2761 78.001C42.5767 77.9857 42.3803 78.2671 42.3901 78.9192C42.4172 80.7041 42.4211 82.4901 42.3865 84.2747C42.3732 84.9605 42.6286 85.1782 43.2967 85.1659C45.1102 85.1325 46.9247 85.1533 48.8926 85.1477Z" fill="#0087C0"/>
<path d="M60.2543 77.4404C60.255 76.8652 60.244 76.3754 60.2587 75.8864C60.294 74.7102 61.1583 73.7671 62.3168 73.7595C66.1457 73.7346 69.9749 73.7338 73.8038 73.7608C75.0003 73.7693 75.8826 74.6576 75.8983 75.9571C75.9432 79.6704 75.9459 83.385 75.8976 87.0982C75.8792 88.5129 74.9155 89.3992 73.5053 89.4081C69.8492 89.4313 66.1926 89.4329 62.5365 89.4063C61.1372 89.3961 60.2602 88.4425 60.2572 87.027C60.2505 83.8601 60.2546 80.6932 60.2543 77.4404ZM67.8326 85.1537C68.8118 85.1533 69.7912 85.1408 70.7701 85.1575C71.2803 85.1662 71.4964 84.9639 71.4923 84.4428C71.4777 82.5421 71.4776 80.6411 71.4936 78.7404C71.4978 78.2399 71.3444 78.0047 70.8036 78.0101C68.9318 78.0288 67.0596 78.0225 65.1877 78.0104C64.7127 78.0073 64.5122 78.1985 64.5148 78.6772C64.5252 80.6068 64.5295 82.5365 64.5112 84.466C64.5061 85.0023 64.7368 85.1741 65.2407 85.1602C66.0465 85.1379 66.8534 85.154 67.8326 85.1537Z" fill="#0087C0"/>
<path d="M38.1373 57.0413C38.1378 56.1774 38.1182 55.3992 38.1431 54.6224C38.1894 53.1768 39.0586 52.3201 40.4922 52.3168C44.1495 52.3085 47.8069 52.3086 51.4643 52.3182C52.9668 52.3222 53.801 53.1722 53.8032 54.6841C53.8086 58.3126 53.808 61.9412 53.8026 65.5698C53.8003 67.1114 52.9407 67.9832 51.3991 67.9874C47.8282 67.997 44.2572 67.9932 40.6862 67.9899C39.0262 67.9884 38.1545 67.1274 38.1427 65.4215C38.1235 62.657 38.1374 59.8923 38.1373 57.0413ZM42.407 59.0372C42.407 60.361 42.415 61.6849 42.4029 63.0085C42.3983 63.5026 42.5599 63.7375 43.1035 63.7308C45.0026 63.7073 46.9023 63.7094 48.8015 63.7285C49.3817 63.7344 49.5451 63.4668 49.541 62.9374C49.5263 61.0669 49.5219 59.196 49.5437 57.3257C49.5502 56.7637 49.3408 56.5608 48.7832 56.571C47.4311 56.5958 46.0782 56.5782 44.7256 56.5783C42.3988 56.5785 42.3988 56.5787 42.407 59.0372Z" fill="#0087C0"/>
<path d="M115.86 120.715C113.238 122.846 110.958 122.859 108.155 120.719C107.613 120.305 107.314 120.297 106.79 120.731C104.417 122.696 101.663 122.737 99.5555 120.914C98.9059 120.352 98.4574 119.657 98.1839 118.855C98.0544 118.475 97.8441 118.333 97.442 118.279C95.3264 117.993 94.0153 116.758 93.4852 114.719C93.3722 114.284 93.1777 114.105 92.7854 113.977C90.3437 113.18 89.1085 111.639 88.9486 109.152C88.9194 108.698 88.6942 108.486 88.3539 108.294C87.6267 107.884 86.8981 107.476 86.181 107.049C85.2609 106.501 84.8114 105.657 84.8095 104.608C84.7983 98.6458 84.7919 92.6833 84.8141 86.721C84.8196 85.2507 85.9421 84.6073 87.525 85.1243C89.165 85.6599 90.7989 86.2157 92.4244 86.794C93.8431 87.2987 95.1503 87.1868 96.4612 86.3926C97.7636 85.6035 99.1105 84.8765 100.542 84.3289C102.534 83.5666 104.529 83.5218 106.504 84.3616C106.916 84.5371 107.243 84.5443 107.64 84.3548C110.454 83.0139 113.2 83.2427 115.905 84.7076C117.627 85.6398 119.383 86.5077 121.104 87.4409C121.528 87.6707 121.886 87.6877 122.322 87.5272C124.265 86.8119 126.218 86.1209 128.165 85.4157C128.573 85.2681 128.977 85.1475 129.421 85.1439C130.846 85.1324 131.557 85.7899 131.577 87.2272C131.599 88.84 131.586 90.4532 131.586 92.0662C131.587 96.0124 131.57 99.9586 131.594 103.905C131.603 105.366 131.005 106.38 129.665 106.971C128.849 107.331 128.057 107.747 127.233 108.086C126.629 108.334 126.343 108.755 126.256 109.377C126.008 111.151 125.136 112.501 123.494 113.286C123.015 113.515 122.738 113.837 122.618 114.364C122.077 116.734 120.532 118 118.159 118.264C117.625 118.323 117.321 118.53 117.111 118.996C116.824 119.633 116.369 120.157 115.86 120.715ZM108.011 111.057C108.368 110.875 108.136 110.54 108.192 110.285C108.522 108.792 109.889 108.209 111.153 109.065C111.461 109.274 111.74 109.529 112.019 109.778C113.372 110.986 114.715 112.206 116.073 113.408C116.372 113.673 116.692 113.943 117.051 114.105C117.61 114.358 118.077 114.101 118.379 113.618C118.682 113.132 118.195 112.976 117.931 112.752C116.855 111.839 115.769 110.939 114.693 110.028C113.682 109.173 112.633 108.355 111.681 107.439C110.417 106.222 110.894 104.312 112.52 103.894C113.331 103.685 113.98 104.048 114.572 104.544C116.469 106.135 118.362 107.732 120.259 109.323C120.574 109.587 120.906 109.835 121.346 109.578C121.681 109.381 121.938 109.129 121.971 108.707C122.011 108.206 121.702 107.914 121.367 107.628C118.627 105.295 115.889 102.959 113.148 100.628C112.036 99.6828 110.917 98.746 109.769 97.7775C108.883 98.496 108.059 99.1662 107.233 99.8342C105.193 101.485 102.962 102.576 100.246 102.04C98.1444 101.625 96.6083 100.44 95.9133 98.3842C95.2121 96.3103 95.5827 94.4135 97.1818 92.833C98.1034 91.9222 99.0329 91.0195 99.9503 90.1046C100.162 89.8933 100.474 89.7295 100.415 89.1999C98.5785 89.9046 96.9244 90.9785 94.9453 91.1777C92.9215 91.3814 91.0725 90.6926 89.2264 90.1306C88.9962 90.6004 89.0649 90.9518 89.0643 91.291C89.0585 94.7179 89.1698 98.1499 89.0141 101.57C88.939 103.22 89.4853 104.168 90.9592 104.7C90.9847 104.709 91.0146 104.706 91.1078 104.716C91.3958 104.417 91.6937 104.067 92.034 103.765C92.7489 103.13 93.5098 102.57 94.5022 102.438C96.5983 102.161 98.623 103.421 99.4489 105.532C99.6055 105.932 99.6905 106.378 100.258 106.4C102.456 106.487 103.818 107.675 104.54 109.684C104.659 110.014 104.804 110.217 105.201 110.226C106.172 110.248 107.045 110.63 108.011 111.057ZM110.937 87.6837C109.481 87.9081 108.161 88.5065 107.023 89.3964C104.682 91.2261 102.74 93.4925 100.547 95.4879C100.095 95.9 99.7614 96.3812 100.064 97.0061C100.361 97.6208 100.882 97.9392 101.589 97.9525C102.478 97.9693 103.214 97.593 103.874 97.0648C105.177 96.0219 106.44 94.9278 107.747 93.8906C109.457 92.5344 110.548 92.5805 112.188 93.9912C115.811 97.1083 119.437 100.223 123.067 103.332C124.616 104.658 124.612 104.627 126.483 103.799C127.093 103.529 127.346 103.191 127.34 102.502C127.308 98.8447 127.327 95.1867 127.32 91.5289C127.32 91.1925 127.387 90.8375 127.175 90.5134C126.874 90.3939 126.613 90.562 126.351 90.6506C125.261 91.0189 124.174 91.3946 123.09 91.7815C122.032 92.1594 121.031 92.1176 120.015 91.5782C117.904 90.4585 115.763 89.3976 113.639 88.3016C112.836 87.887 112.026 87.5324 110.937 87.6837ZM109.758 113.629C109.917 114.155 110.062 114.694 109.973 115.24C109.736 116.69 110.817 117.262 111.754 117.882C112.243 118.205 112.763 117.964 113.131 117.525C113.418 117.183 113.69 116.761 113.294 116.373C112.124 115.227 110.913 114.121 109.718 113C109.678 113.037 109.639 113.075 109.599 113.112C109.635 113.249 109.672 113.385 109.758 113.629ZM103.84 114.996C103.396 115.446 102.943 115.888 102.511 116.349C102.14 116.745 102.001 117.215 102.368 117.669C102.753 118.143 103.211 118.027 103.671 117.722C104.254 117.335 104.686 116.791 105.194 116.327C105.707 115.859 106.029 115.272 105.523 114.67C104.946 113.984 104.402 114.431 103.84 114.996ZM100.649 110.991C100.257 110.657 99.8354 110.522 99.4199 110.922C98.8196 111.499 98.2307 112.09 97.6648 112.701C97.3368 113.055 97.2714 113.468 97.6401 113.855C98.0119 114.246 98.464 114.313 98.879 113.986C99.5325 113.47 100.137 112.888 100.633 112.216C100.876 111.886 100.992 111.49 100.649 110.991ZM95.9757 108.183C95.9551 107.132 95.3178 106.594 94.5861 107.045C94.0747 107.359 93.6478 107.795 93.3532 108.33C93.1035 108.783 93.158 109.214 93.5544 109.566C93.9603 109.926 94.3789 109.906 94.7802 109.551C95.2064 109.174 95.6655 108.826 95.9757 108.183Z" fill="#0087C0"/>
</svg>
