<svg width="174" height="174" viewBox="0 0 174 174" fill="none" xmlns="http://www.w3.org/2000/svg">
<path d="M55.4411 145.353C52.7402 146.389 50.1083 147.423 47.4608 148.415C46.843 148.647 46.5816 148.956 46.5975 149.65C46.6286 151.011 45.8024 151.795 44.431 151.797C39.3903 151.804 34.3496 151.804 29.309 151.796C28.0069 151.794 27.1338 150.921 27.133 149.606C27.1262 138.986 27.1264 128.367 27.1327 117.747C27.1336 116.396 28.0091 115.512 29.3636 115.498C31.2607 115.477 33.1596 115.452 35.055 115.513C35.9102 115.541 36.1624 115.293 36.1601 114.423C36.1315 103.747 36.1421 93.0708 36.1419 82.3947C36.1415 62.7134 36.1405 43.032 36.14 23.3506C36.1399 21.4832 36.7742 20.8406 38.6153 20.8405C40.5693 20.8404 42.5235 20.8225 44.4771 20.8503C45.104 20.8592 45.3309 20.6382 45.32 20.0116C45.2919 18.3979 45.3058 16.7834 45.3139 15.1693C45.321 13.7403 46.0296 13.0274 47.4448 13.0273C66.3898 13.0257 85.3349 13.0257 104.28 13.0276C105.713 13.0277 106.42 13.7298 106.427 15.1521C106.434 16.7096 106.476 18.269 106.412 19.8239C106.377 20.6718 106.687 20.8783 107.482 20.8567C109.349 20.806 111.219 20.8357 113.088 20.8426C114.565 20.8481 115.263 21.5536 115.263 23.0381C115.265 34.7336 115.264 46.4292 115.265 58.1247C115.265 59.3948 115.271 59.3377 116.519 59.4238C122.605 59.8431 127.934 62.0785 132.401 66.2465C136.69 70.2486 139.35 75.2069 140.16 80.983C141.411 89.9084 138.886 97.6474 132.193 103.859C128.37 107.408 123.839 109.579 118.692 110.289C111.59 111.268 105.09 109.619 99.3471 105.286C93.6953 101.023 90.3356 95.3086 89.3818 88.3335C88.3399 80.714 90.3595 73.8828 95.4099 68.0099C95.7025 67.6696 95.9863 67.3215 96.3891 66.8396C94.8809 66.8396 93.5083 66.8448 92.1358 66.8382C90.6623 66.8311 89.8358 66.0062 89.8329 64.5195C89.8261 60.9514 89.8256 57.3833 89.8345 53.8151C89.8383 52.3102 90.7037 51.4394 92.206 51.4352C95.7458 51.4255 99.2856 51.4232 102.825 51.4371C104.403 51.4433 105.231 52.2895 105.238 53.8624C105.247 55.873 105.237 57.8836 105.244 59.8942C105.246 60.1977 105.168 60.5165 105.391 60.8869C106.201 60.6445 107.022 60.3688 107.858 60.1562C108.733 59.9342 109.617 59.7423 110.507 59.5982C110.949 59.5268 111.084 59.3179 111.069 58.9206C111.061 58.7227 111.069 58.5242 111.069 58.326C111.07 47.6216 111.07 36.9172 111.069 26.2128C111.069 25.0451 111.068 25.0421 109.922 25.0421C87.1252 25.0413 64.3288 25.0458 41.5324 25.0229C40.665 25.0221 40.4327 25.2761 40.4333 26.128C40.4526 55.5509 40.4518 84.9738 40.4329 114.397C40.4323 115.232 40.6341 115.586 41.5221 115.508C42.3653 115.435 43.2206 115.517 44.0692 115.488C45.3451 115.445 46.2692 115.915 46.694 117.225C47.9071 117.1 49.0028 116.642 50.0421 116.093C51.7934 115.168 53.491 114.142 55.2325 113.197C55.7488 112.918 55.7311 112.502 55.7314 112.047C55.7342 107.176 55.7356 102.306 55.7444 97.4348C55.7451 97.0405 55.7657 96.6408 55.8327 96.2533C56.0109 95.2237 56.7214 94.5975 57.7681 94.5963C65.6973 94.5872 73.6265 94.585 81.5556 94.5973C82.8549 94.5993 83.6419 95.4254 83.6501 96.7575C83.667 99.476 83.6724 102.195 83.6443 104.913C83.6384 105.484 83.7909 105.788 84.3625 105.948C88.1051 106.989 91.5225 108.768 94.8008 110.79C97.5919 112.511 100.58 113.267 103.821 113.286C107.529 113.308 111.24 113.325 114.944 113.478C117.768 113.594 120.426 114.315 122.459 116.49C122.822 116.879 123.126 116.863 123.542 116.527C128.122 112.828 132.726 109.16 137.301 105.454C140.004 103.264 143.484 102.767 146.163 104.212C149.291 105.898 151.529 110.993 147.79 115.056C144.148 119.015 140.427 122.9 136.749 126.825C134.058 129.697 131.339 132.543 128.709 135.469C125.712 138.804 122.21 141.259 117.892 142.644C111.409 144.722 104.971 146.945 98.5468 149.2C94.5124 150.616 90.5703 150.592 86.529 149.205C81.077 147.333 75.5733 145.612 70.083 143.853C68.2253 143.258 66.3058 142.898 64.373 142.657C63.0751 142.495 61.8595 142.979 60.6638 143.399C58.9315 144.009 57.2231 144.686 55.4411 145.353ZM92.5225 129.034C90.6535 129.032 88.7843 129.048 86.9157 129.021C85.8223 129.006 84.9793 128.168 84.9065 127.107C84.8334 126.039 85.4809 125.198 86.5649 124.991C86.9233 124.923 87.294 124.892 87.6592 124.891C89.8398 124.881 92.0205 124.887 94.2011 124.883C100.969 124.87 107.737 124.87 114.505 124.825C115.854 124.816 117.122 124.386 118.242 123.602C119.464 122.747 119.978 121.273 119.461 120.052C118.961 118.872 117.923 118.342 116.782 118.024C115.661 117.711 114.493 117.666 113.334 117.655C110.304 117.627 107.273 117.65 104.244 117.603C101.325 117.557 98.4282 117.355 95.6995 116.143C93.699 115.253 91.9123 113.993 90.0072 112.938C86.1154 110.784 82.0437 109.262 77.5281 109.341C74.0732 109.402 70.7611 110.209 67.5814 111.552C63.5814 113.242 59.8705 115.483 56.0948 117.599C53.3576 119.133 50.6926 120.833 47.5797 121.537C46.8339 121.706 46.5956 122.014 46.5991 122.786C46.6303 129.611 46.6159 136.436 46.6234 143.261C46.6236 143.522 46.5026 143.825 46.8333 144.105C50.6593 142.639 54.5208 141.186 58.361 139.679C60.655 138.779 62.9908 138.134 65.4673 138.49C68.6622 138.949 71.7426 139.905 74.8078 140.884C79.3025 142.319 83.7962 143.762 88.2614 145.285C91.2823 146.316 94.2131 146.225 97.2109 145.177C103.855 142.855 110.519 140.589 117.193 138.353C120.166 137.357 122.676 135.715 124.803 133.43C128.99 128.934 133.195 124.455 137.396 119.971C139.757 117.451 142.132 114.943 144.486 112.416C145.108 111.749 145.681 111.031 145.454 110.016C144.933 107.687 142.546 106.825 140.653 108.323C135.171 112.662 129.709 117.027 124.236 121.378C123.956 121.6 123.808 121.842 123.743 122.214C123.474 123.758 122.779 125.112 121.688 126.233C119.778 128.195 117.338 128.987 114.697 129.01C107.363 129.075 100.027 129.034 92.5225 129.034ZM133.449 74.614C132.589 73.0746 131.571 71.6496 130.342 70.3838C125.338 65.2267 119.238 62.8503 112.101 63.6679C106.513 64.3082 101.85 66.9398 98.2747 71.3233C94.1986 76.3214 92.7917 82.069 93.8078 88.402C94.6094 93.3973 97.0198 97.5393 100.793 100.876C104.352 104.024 108.52 105.883 113.255 106.279C116.742 106.571 120.137 105.969 123.333 104.506C130.718 101.126 135.026 95.3833 136 87.3339C136.533 82.9253 135.719 78.6551 133.449 74.614ZM31.3232 135.343C31.3238 139.135 31.3388 142.927 31.3121 146.718C31.3072 147.415 31.5204 147.658 32.2284 147.651C35.3127 147.621 38.3975 147.618 41.4816 147.652C42.2353 147.66 42.4373 147.404 42.4354 146.669C42.4129 137.982 42.4145 129.294 42.4331 120.607C42.4346 119.919 42.2498 119.667 41.5279 119.675C38.4721 119.71 35.4153 119.717 32.3597 119.674C31.5327 119.663 31.3026 119.931 31.308 120.741C31.3406 125.551 31.3236 130.362 31.3232 135.343ZM80.7979 17.2315C71.9644 17.2318 63.131 17.2322 54.2975 17.2323C52.9668 17.2324 51.6358 17.2487 50.3056 17.2231C49.7294 17.212 49.4665 17.4096 49.5011 18.0084C49.532 18.5445 49.5062 19.0838 49.5066 19.6218C49.5077 20.8391 49.508 20.8402 50.6955 20.8403C67.0318 20.8406 83.368 20.8437 99.7042 20.8313C100.51 20.8306 101.528 21.1922 102.068 20.6326C102.57 20.1124 102.205 19.1174 102.226 18.3328C102.254 17.2371 102.231 17.2329 101.098 17.2327C94.3879 17.2314 87.6778 17.2318 80.7979 17.2315ZM71.4522 98.7887C67.9729 98.7881 64.4935 98.8034 61.0145 98.7739C60.3056 98.768 60.0126 98.9281 60.0219 99.7106C60.0622 103.076 60.0394 106.443 60.0456 109.809C60.0459 109.994 59.9717 110.205 60.2192 110.43C66.1384 107.177 72.3128 104.659 79.3092 105.153C79.3092 102.954 79.3092 100.91 79.3092 98.7888C76.7034 98.7888 74.1627 98.7888 71.4522 98.7887ZM99.4525 55.714C97.9267 55.691 96.4006 55.6792 94.8752 55.639C94.3437 55.6249 94.0115 55.7209 94.0197 56.3649C94.0433 58.2306 94.0332 60.0967 94.0245 61.9626C94.0224 62.4125 94.1815 62.6461 94.6637 62.6437C96.5296 62.6344 98.3956 62.6382 100.261 62.6419C100.62 62.6426 100.871 62.5446 100.87 62.1251C100.868 60.0128 100.869 57.9005 100.869 55.714C100.386 55.714 99.998 55.714 99.4525 55.714Z" fill="#0087C0"/>
<path d="M77.1445 87.8885C74.9358 87.8878 72.8121 87.8912 70.6883 87.885C68.896 87.8798 68.0807 87.0733 68.0799 85.3145C68.0784 81.8598 68.0785 78.4052 68.0802 74.9505C68.081 73.2004 68.82 72.4257 70.606 72.3939C72.4744 72.3607 74.3437 72.3851 76.2126 72.3848C77.7417 72.3846 79.2711 72.3653 80.7998 72.3902C82.6752 72.4207 83.4787 73.2524 83.4804 75.1187C83.4835 78.46 83.4852 81.8014 83.4803 85.1428C83.4776 87.0246 82.6129 87.8784 80.7124 87.8876C79.5515 87.8931 78.3905 87.8885 77.1445 87.8885ZM78.6462 76.5382C76.8371 76.5361 75.0271 76.5637 73.2191 76.5177C72.4617 76.4984 72.2406 76.7741 72.2584 77.5039C72.3013 79.2556 72.2917 81.0092 72.2656 82.7615C72.2569 83.3512 72.4647 83.5587 73.0533 83.5497C74.8056 83.5227 76.5587 83.5254 78.3111 83.5458C78.871 83.5523 79.1401 83.3921 79.1316 82.7794C79.1062 80.9422 79.1227 79.1045 79.12 77.267C79.1196 76.9841 79.1362 76.6864 78.6462 76.5382Z" fill="#0087C0"/>
<path d="M61.5821 86.4544C61.1522 87.474 60.3624 87.8623 59.3944 87.8685C55.8308 87.8914 52.2668 87.9004 48.7032 87.8751C47.2755 87.8649 46.3545 86.9432 46.3445 85.5235C46.3188 81.875 46.3227 78.2261 46.3428 74.5776C46.349 73.4542 46.9944 72.7342 48.0862 72.49C48.169 72.4715 48.252 72.4422 48.3354 72.4406C52.207 72.3667 56.0805 72.2685 59.9482 72.5027C60.9939 72.566 61.7205 73.4162 61.7271 74.4454C61.7512 78.2636 61.7357 82.082 61.7271 85.9003C61.7267 86.0628 61.6464 86.2252 61.5821 86.4544ZM52.9324 83.5404C54.1748 83.5396 55.4175 83.5224 56.6595 83.5457C57.1967 83.5557 57.4288 83.3682 57.4235 82.8138C57.4058 80.9786 57.4045 79.143 57.421 77.3078C57.4262 76.7272 57.2001 76.5131 56.6155 76.5219C54.8652 76.5483 53.114 76.5494 51.3637 76.5237C50.7438 76.5147 50.505 76.737 50.5188 77.3628C50.5481 78.6893 50.5263 80.0169 50.5262 81.344C50.526 83.5437 50.5263 83.5437 52.9324 83.5404Z" fill="#0087C0"/>
<path d="M90.1735 31.9469C90.6714 31.2169 91.3705 30.9823 92.1238 30.9738C95.802 30.9323 99.4822 30.839 103.158 31.0217C104.538 31.0903 105.234 31.9229 105.237 33.3018C105.246 36.8968 105.246 40.4917 105.236 44.0866C105.233 45.4084 104.495 46.2318 103.179 46.2908C99.5024 46.4559 95.8219 46.4044 92.1444 46.3222C90.4923 46.2852 89.8327 45.4901 89.8312 43.8352C89.8279 40.3818 89.8346 36.9284 89.8277 33.475C89.8267 32.9575 89.8657 32.459 90.1735 31.9469ZM99.1364 35.0745C97.6961 35.0744 96.2556 35.0896 94.8158 35.0669C94.2348 35.0577 94.0116 35.2767 94.019 35.8633C94.0416 37.6703 94.0497 39.4783 94.0147 41.285C94.002 41.9426 94.2719 42.1 94.8707 42.09C96.5929 42.0615 98.3161 42.0598 100.038 42.087C100.655 42.0967 100.897 41.8929 100.884 41.2583C100.852 39.734 100.879 38.2086 100.873 36.6836C100.867 34.8861 101.024 35.0824 99.1364 35.0745Z" fill="#0087C0"/>
<path d="M83.4803 38.4025C83.4802 40.2703 83.4882 42.0533 83.4777 43.8361C83.4682 45.4475 82.8123 46.2255 81.2166 46.3029C78.0507 46.4566 74.8805 46.373 71.712 46.3371C71.1467 46.3307 70.5809 46.3262 70.0164 46.2988C68.8901 46.2444 68.0914 45.4646 68.0869 44.3471C68.0714 40.555 68.0743 36.7628 68.0862 32.9707C68.0893 31.9953 68.7291 31.2531 69.6811 31.0467C69.9016 30.9989 70.129 30.9553 70.3531 30.9559C74.0305 30.9663 77.71 30.8214 81.3845 31.0297C82.7511 31.1072 83.4552 31.9172 83.4746 33.3085C83.4978 34.9779 83.4802 36.6478 83.4803 38.4025ZM77.3868 42.0794C77.6128 42.0791 77.8418 42.0545 78.0642 42.0828C78.853 42.183 79.1714 41.9046 79.1415 41.0582C79.0817 39.3655 79.0964 37.6686 79.1354 35.9748C79.1519 35.2607 78.8866 35.0456 78.1967 35.061C76.5028 35.0987 74.8072 35.0902 73.1129 35.0654C72.5029 35.0564 72.2513 35.2572 72.2619 35.8952C72.2919 37.7025 72.2917 39.5108 72.2645 41.3181C72.2554 41.9245 72.4974 42.1003 73.0686 42.089C74.4522 42.0617 75.8366 42.0797 77.3868 42.0794Z" fill="#0087C0"/>
<path d="M61.7412 35.8537C61.7411 38.5689 61.7431 41.1992 61.74 43.8295C61.7381 45.5337 61.0135 46.2413 59.3476 46.299C55.9545 46.4164 52.5612 46.3647 49.168 46.3608C47.4024 46.3587 46.6884 45.8814 46.3968 44.5964C46.3351 44.3249 46.336 44.0355 46.3357 43.7544C46.3322 40.3604 46.3308 36.9664 46.3353 33.5725C46.3376 31.8744 46.9626 31.0686 48.6716 31.0105C51.7505 30.9058 54.8346 30.9504 57.9166 30.9443C58.5373 30.9431 59.1613 30.963 59.7781 31.0271C61.0716 31.1614 61.7252 31.9067 61.7388 33.2233C61.7476 34.0717 61.7409 34.9202 61.7412 35.8537ZM57.4135 39.1667C57.4132 38.0654 57.3979 36.9638 57.4188 35.8629C57.4296 35.2947 57.2285 35.054 56.6297 35.0635C54.851 35.0917 53.0716 35.0853 51.2927 35.0702C50.7748 35.0658 50.5145 35.2116 50.5214 35.7882C50.5437 37.6517 50.5373 39.5157 50.5224 41.3794C50.5184 41.8858 50.7197 42.088 51.2254 42.0841C53.0608 42.0697 54.8965 42.0669 56.7319 42.0827C57.2518 42.0872 57.4362 41.8649 57.4214 41.3695C57.4012 40.6923 57.4145 40.0142 57.4135 39.1667Z" fill="#0087C0"/>
<path d="M46.3335 58.9629C46.3338 57.2072 46.3267 55.5365 46.3365 53.8659C46.3456 52.313 47.205 51.4407 48.7572 51.436C52.2684 51.4254 55.7797 51.4263 59.2909 51.4368C60.9222 51.4416 61.7389 52.2748 61.74 53.8989C61.7424 57.4101 61.7434 60.9214 61.7392 64.4326C61.7373 66.0188 60.9261 66.8343 59.3373 66.8372C55.7694 66.8437 52.2015 66.8441 48.6336 66.8382C47.2353 66.8359 46.363 65.991 46.3412 64.5695C46.313 62.7293 46.3338 60.8884 46.3335 58.9629ZM54.1209 55.7151C53.1593 55.6971 52.1974 55.6861 51.2361 55.658C50.7557 55.644 50.5124 55.7958 50.5189 56.3358C50.5416 58.2034 50.536 60.0716 50.5226 61.9394C50.519 62.4443 50.7168 62.6504 51.2265 62.6464C53.066 62.632 54.9057 62.6339 56.7453 62.6463C57.207 62.6494 57.4191 62.4764 57.4171 62.0021C57.409 60.1059 57.4059 58.2096 57.4226 56.3136C57.4269 55.8176 57.2127 55.6858 56.7522 55.7024C55.9325 55.732 55.111 55.7132 54.1209 55.7151Z" fill="#0087C0"/>
<path d="M68.9185 51.8892C69.429 51.5312 69.9414 51.428 70.4936 51.429C74.0003 51.4353 77.507 51.4267 81.0136 51.4354C82.5486 51.4393 83.4634 52.3094 83.4732 53.8431C83.4958 57.4062 83.4939 60.9696 83.4696 64.5327C83.4599 65.9621 82.5379 66.8353 81.109 66.8381C77.5175 66.845 73.926 66.8438 70.3345 66.8365C68.9104 66.8336 68.0855 66.0039 68.0826 64.5677C68.0753 60.9479 68.089 57.3281 68.0733 53.7084C68.0701 52.976 68.2829 52.3807 68.9185 51.8892ZM79.123 56.2783C79.2067 55.6733 78.8259 55.672 78.388 55.6806C76.6053 55.7155 74.8213 55.7837 73.0405 55.6441C72.422 55.5956 72.2594 55.8819 72.2658 56.4459C72.2858 58.2294 72.3017 60.014 72.259 61.7967C72.2422 62.4954 72.5093 62.6666 73.1552 62.6537C74.8533 62.6197 76.553 62.6196 78.2511 62.6542C78.9152 62.6677 79.1486 62.4429 79.1355 61.7734C79.1007 59.9903 79.1236 58.2061 79.123 56.2783Z" fill="#0087C0"/>
<path d="M103.337 89.5245C102.108 88.3078 100.912 87.1424 99.7392 85.9545C98.6646 84.866 98.6894 83.7972 99.7802 82.7051C100.24 82.2446 100.696 81.7798 101.164 81.3276C102.148 80.3764 103.152 80.3665 104.143 81.3378C105.901 83.0604 107.636 84.8057 109.386 86.5362C109.643 86.7905 109.862 87.0991 110.224 87.2291C110.558 87.1464 110.731 86.8691 110.946 86.6537C115.443 82.1477 119.935 77.6366 124.432 73.1301C125.353 72.2065 126.505 72.2252 127.422 73.1536C127.958 73.6971 128.516 74.2201 129.042 74.7731C129.98 75.7587 129.971 76.8125 129.026 77.7629C123.459 83.3605 117.892 88.9581 112.321 94.5506C110.839 96.0378 109.885 96.0222 108.382 94.5281C106.716 92.8725 105.048 91.2199 103.337 89.5245Z" fill="#0087C0"/>
</svg>
