<svg width="174" height="174" viewBox="0 0 174 174" fill="none" xmlns="http://www.w3.org/2000/svg">
<path d="M42.051 72.4543C44.411 73.6162 46.715 74.7484 49.0174 75.8798C49.3362 75.4834 49.2114 75.1013 49.2116 74.7524C49.2193 57.6498 49.2192 40.5472 49.2192 23.4446C49.2192 21.4235 49.8111 20.8385 51.8572 20.841C53.5845 20.8432 55.3133 20.7987 57.0383 20.8613C57.8867 20.892 58.0991 20.5858 58.0699 19.7902C58.0148 18.2915 58.0458 16.7893 58.0576 15.2887C58.0668 14.1123 58.683 13.3874 59.844 13.1837C60.2316 13.1156 60.6297 13.0762 61.023 13.076C78.4653 13.069 95.9076 13.0674 113.35 13.0667C115.123 13.0666 116.023 13.5925 116.242 14.8201C116.331 15.3153 116.282 15.8361 116.284 16.3453C116.289 17.5063 116.339 18.6704 116.268 19.8271C116.216 20.6817 116.552 20.8827 117.34 20.8591C119.009 20.8092 120.681 20.8412 122.351 20.8441C124.2 20.8472 125.12 21.7627 125.12 23.6016C125.121 40.6476 125.121 57.6936 125.122 74.7395C125.122 75.0727 125.122 75.4059 125.122 75.9169C126.198 75.4132 127.136 74.9827 128.066 74.537C130.618 73.3145 133.165 72.0809 135.719 70.8609C137.457 70.0302 138.461 70.3924 139.272 72.1293C144.762 83.8987 150.179 95.7029 155.788 107.417C156.506 108.916 156.137 110.057 154.664 110.793C149.678 113.284 144.688 115.766 139.691 118.235C137.959 119.09 136.887 118.701 136.032 116.969C135.958 116.818 135.882 116.668 135.75 116.402C132.423 118.078 129.295 120.017 126.192 122.079C126.534 122.939 126.975 123.698 127.16 124.558C127.971 128.346 125.452 132.616 121.435 133.453C120.734 133.599 120.035 133.632 119.327 133.614C118.996 133.606 118.752 133.638 118.66 134.069C117.713 138.509 114.9 140.578 110.375 140.193C110.348 140.19 110.321 140.2 110.179 140.22C109.708 142.413 108.625 144.268 106.553 145.403C104.515 146.519 102.413 146.584 100.251 145.659C99.9576 146.282 99.7297 146.857 99.4282 147.391C97.3842 151.007 93.0527 152.124 89.5579 149.859C87.1137 148.275 84.7374 146.584 82.3658 144.892C81.7549 144.456 81.4356 144.548 80.983 145.092C79.6058 146.75 78.0621 148.123 75.7728 148.452C72.8879 148.867 69.9674 147.303 68.8377 144.576C68.7313 144.32 68.6294 144.061 68.528 143.81C64.2387 144.876 60.5853 142.58 59.8258 138.203C58.8866 138.128 57.9312 138.306 56.9819 138.067C54.1419 137.354 52.4263 135.544 51.7954 132.732C51.6325 132.005 51.2114 132.087 50.7433 132.098C48.2506 132.159 46.3021 131.117 44.8807 129.117C43.3407 126.951 43.4016 123.943 44.9579 121.708C45.1986 121.362 45.4537 121.026 45.7863 120.57C43.4213 119.08 41.0933 117.612 38.7951 116.164C38.3774 116.462 38.2967 116.838 38.1419 117.163C37.436 118.644 36.2242 119.112 34.7032 118.367C30.8915 116.501 27.1012 114.591 23.3028 112.698C22.0868 112.091 20.8657 111.495 19.6589 110.871C18.1687 110.101 17.7933 109.011 18.4959 107.506C22.8062 98.2772 27.1201 89.0498 31.4357 79.8232C32.6585 77.209 33.8921 74.5998 35.119 71.9875C35.785 70.5693 36.9685 70.0649 38.403 70.6865C39.6224 71.2149 40.7992 71.8414 42.051 72.4543ZM53.5209 33.5595C53.5216 48.1698 53.5254 62.7801 53.5098 77.3904C53.5093 77.8631 53.649 78.0856 54.0628 78.2906C55.5785 79.0414 55.9333 80.062 55.2867 81.6356C55.2468 81.7328 55.2358 81.8418 55.1971 82.0058C57.3311 83.1013 59.4814 84.0932 61.7157 84.9039C62.4446 85.1683 63.1852 85.262 63.9602 85.2492C66.9274 85.2 69.8805 84.9327 72.8371 84.7178C73.4424 84.6739 73.7041 84.3745 73.6985 83.7216C73.6711 80.4939 73.6842 77.2659 73.6878 74.038C73.6897 72.3911 74.6036 71.483 76.2746 71.4821C83.4948 71.478 90.7151 71.4776 97.9354 71.4811C99.7176 71.482 100.65 72.4262 100.651 74.211C100.653 77.0142 100.67 79.8176 100.639 82.6204C100.632 83.2515 100.849 83.4953 101.452 83.646C103.669 84.2001 105.883 84.7748 108.074 85.4223C109.607 85.8753 111.067 85.8605 112.532 85.2048C114.545 84.3036 116.573 83.434 118.59 82.5409C118.862 82.4201 119.197 82.3609 119.334 81.9873C119.224 81.7495 119.092 81.501 118.991 81.2407C118.526 80.0475 118.852 78.8752 119.97 78.3447C120.785 77.958 120.939 77.4304 120.938 76.6183C120.919 59.9976 120.926 43.3768 120.917 26.756C120.916 25.1186 121.256 25.129 119.254 25.129C97.6501 25.1288 76.0459 25.1341 54.4418 25.1111C53.6515 25.1103 53.5002 25.3797 53.5098 26.0846C53.5427 28.5192 53.5211 30.9545 53.5209 33.5595ZM79.5979 103.488C78.4875 104.225 77.3412 104.905 76.093 105.375C73.4476 106.37 70.7904 106.758 68.1319 105.387C64.6 103.567 63.5197 99.2732 65.9406 96.4606C67.7858 94.3169 69.6273 92.1673 71.6032 90.1391C71.8459 89.8899 72.1498 89.6584 72.1833 89.0936C70.8725 89.1836 69.6215 89.3193 68.3683 89.3444C66.2555 89.3866 64.1431 89.8581 62.0302 89.4333C60.1593 89.0571 58.4544 88.2067 56.7167 87.4595C55.5037 86.9379 54.3022 86.3893 53.078 85.845C52.9568 86.0364 52.8699 86.1464 52.8115 86.2699C48.8232 94.7116 44.8414 103.156 40.8414 111.592C40.578 112.148 40.8575 112.341 41.2506 112.584C43.2483 113.819 45.237 115.069 47.2298 116.312C47.6812 116.594 48.1363 116.87 48.5787 117.141C49.0286 116.821 49.3103 116.431 49.6064 116.055C53.5291 111.07 59.6294 113.453 61.1974 117.504C61.4611 118.185 61.7973 117.962 62.2416 117.771C65.4847 116.38 69.1444 117.797 70.6851 120.98C71.1083 121.855 71.218 122.81 71.5268 123.735C72.4933 123.634 73.4263 123.535 74.3427 123.749C77.6211 124.514 79.7106 127.252 79.5584 130.629C79.5329 131.195 79.6261 131.402 80.2289 131.503C81.2103 131.666 82.1085 132.09 82.8683 132.776C85.0994 134.789 85.7524 137.421 84.691 140.236C84.5567 140.592 84.4008 140.907 84.8192 141.201C87.2483 142.912 89.643 144.673 92.1043 146.335C93.2251 147.092 94.7549 146.62 95.5915 145.432C96.4228 144.251 96.2732 142.833 95.1949 141.931C94.5005 141.351 93.777 140.805 93.0658 140.244C91.0652 138.668 89.0587 137.099 87.0664 135.513C86.416 134.995 85.9775 134.343 86.1803 133.457C86.5742 131.736 88.212 131.097 89.6458 132.177C91.9065 133.878 94.1125 135.653 96.3354 137.405C98.0247 138.736 99.6868 140.102 101.394 141.409C102.7 142.41 104.374 142.109 105.359 140.768C106.326 139.451 106.126 137.951 104.859 136.941C100.901 133.781 96.9448 130.617 92.9892 127.454C91.9385 126.614 91.7229 125.239 92.4886 124.301C93.2829 123.328 94.6664 123.219 95.7556 124.086C97.549 125.513 99.3208 126.967 101.105 128.406C103.991 130.733 106.87 133.069 109.77 135.377C111.139 136.466 112.781 136.221 113.881 134.824C114.879 133.558 114.69 131.748 113.426 130.737C110.997 128.792 108.55 126.869 106.119 124.925C103.577 122.894 101.044 120.851 98.5124 118.808C97.7884 118.223 97.4718 117.468 97.728 116.55C98.1529 115.029 99.8985 114.455 101.2 115.446C102.889 116.731 104.548 118.057 106.194 119.396C110.058 122.54 113.984 125.604 117.928 128.645C118.746 129.275 119.629 129.622 120.694 129.291C121.97 128.893 122.661 127.997 122.908 126.744C123.145 125.54 122.783 124.555 121.801 123.739C116.294 119.164 110.815 114.554 105.317 109.968C101.186 106.522 96.9086 103.269 92.5486 100.118C90.7925 98.8482 89.0303 97.9345 86.7776 98.2506C86.1581 98.3375 85.6461 98.4471 85.192 98.8884C83.4851 100.547 81.684 102.095 79.5979 103.488ZM127.564 116.085C129.548 114.734 131.743 113.741 133.89 112.468C129.709 103.643 125.559 94.8865 121.43 86.1729C120.922 86.15 120.61 86.3694 120.277 86.5085C118.059 87.4338 115.854 88.3896 113.626 89.2906C112.235 89.8533 110.818 90.2857 109.263 90.0091C106.563 89.5285 103.947 88.7182 101.312 87.9921C97.5847 86.9647 93.8578 86.1878 89.9525 86.6673C88.6966 86.8215 87.4035 86.8257 86.1395 86.6314C83.6265 86.245 81.3764 86.7397 79.4156 88.4287C76.963 90.5413 74.8572 92.9909 72.6417 95.3333C71.5146 96.5249 70.4115 97.7432 69.3642 99.0048C68.6778 99.8318 68.7437 100.468 69.5287 101.143C70.3525 101.85 71.3263 102.19 72.4373 101.997C73.8212 101.757 75.0945 101.229 76.2934 100.513C78.6675 99.0937 80.6626 97.2001 82.6972 95.3594C83.6209 94.5238 84.6768 94.0773 85.9219 94.0776C87.0825 94.0779 88.2474 94.1395 89.4026 94.0607C90.6375 93.9763 91.671 94.402 92.6607 95.0492C99.4214 99.4699 105.705 104.516 111.909 109.671C115.414 112.582 118.857 115.563 122.28 118.568C122.726 118.96 123.018 118.973 123.511 118.64C124.799 117.769 126.14 116.976 127.564 116.085ZM133.1 100.813C135.114 105.07 137.127 109.328 139.18 113.668C143.242 111.66 147.165 109.722 151.161 107.746C146.121 96.9417 141.119 86.2188 136.094 75.4465C131.917 77.4136 127.885 79.3123 123.749 81.2598C126.874 87.7951 129.96 94.2466 133.1 100.813ZM49.2965 83.7247C49.6581 82.965 50.0197 82.2052 50.4126 81.3795C46.3273 79.3944 42.3185 77.4464 38.2119 75.4508C33.144 86.2448 28.1175 96.9505 23.079 107.682C27.1549 109.754 31.0774 111.748 35.0512 113.768C39.8128 103.726 44.5272 93.7831 49.2965 83.7247ZM108.665 17.3966C93.5757 17.3966 78.4864 17.3963 63.3972 17.3969C62.2498 17.397 62.2495 17.3999 62.248 18.5053C62.2475 18.9017 62.2481 19.298 62.2492 19.6944C62.2524 20.8415 62.2526 20.8429 63.4235 20.8429C79.2205 20.8433 95.0175 20.8434 110.814 20.8434C111.013 20.8434 111.212 20.8281 111.409 20.8439C111.933 20.8861 112.111 20.634 112.094 20.1348C112.069 19.4562 112.07 18.7756 112.09 18.0968C112.105 17.5865 111.887 17.381 111.383 17.3915C110.534 17.4093 109.684 17.3965 108.665 17.3966ZM96.4545 81.7365C96.4541 80.0678 96.4321 78.3987 96.4641 76.7306C96.4766 76.0784 96.2694 75.8339 95.5919 75.8365C89.992 75.8575 84.3919 75.859 78.792 75.8384C78.0823 75.8358 77.8596 76.0825 77.8703 76.7777C77.9039 78.955 77.8806 81.1331 77.8865 83.3109C77.8871 83.5252 77.8119 83.768 78.0271 83.9469C78.3409 83.9977 78.5537 83.7819 78.7876 83.6422C80.6663 82.5208 82.7139 82.0153 84.8738 82.2173C86.8525 82.4024 88.8268 82.3964 90.8013 82.3382C92.4945 82.2882 94.179 82.2578 95.8602 82.4951C96.3206 82.5602 96.4613 82.2892 96.4545 81.7365ZM64.1441 128.632C64.9808 127.64 65.844 126.668 66.6443 125.647C67.1259 125.032 67.368 124.308 67.1523 123.502C66.592 121.409 64.2439 120.835 62.7019 122.482C60.5986 124.729 58.5521 127.03 56.522 129.343C55.4358 130.581 55.5661 132.343 56.7227 133.274C57.9068 134.228 59.46 134.009 60.5564 132.743C61.7211 131.399 62.8948 130.063 64.1441 128.632ZM70.795 136.305C71.6415 135.355 72.4916 134.409 73.333 133.454C73.855 132.862 74.48 132.36 74.8737 131.655C75.7646 130.059 75.0685 128.271 73.3697 127.899C72.3509 127.677 71.4441 128.009 70.7518 128.762C68.7051 130.989 66.667 133.225 64.6719 135.498C63.6796 136.629 63.8194 138.192 64.8871 139.139C65.9593 140.09 67.4927 139.996 68.5323 138.878C69.2826 138.071 69.99 137.224 70.795 136.305ZM56.2559 122.441C56.6246 122.012 56.9876 121.579 57.2054 121.047C57.655 119.95 57.2489 118.631 56.2632 117.981C55.3204 117.36 54.0705 117.473 53.2601 118.375C51.6553 120.161 50.0724 121.969 48.5464 123.822C47.6633 124.894 47.9436 126.481 49.0467 127.36C50.0979 128.199 51.5004 128.02 52.4407 126.919C53.6883 125.459 54.9307 123.994 56.2559 122.441ZM80.8198 137.719C80.7532 136.653 80.2511 135.852 79.2213 135.557C78.2438 135.277 77.3929 135.637 76.7183 136.408C75.6201 137.663 74.5135 138.91 73.4073 140.158C72.3722 141.325 72.3631 142.578 73.3879 143.541C74.3865 144.479 75.7163 144.384 76.7596 143.266C77.7821 142.171 78.7663 141.04 79.7893 139.945C80.3493 139.345 80.7155 138.67 80.8198 137.719Z" fill="#0087C0"/>
<path d="M109.939 31.0361C111.014 31.0363 112.004 31.028 112.994 31.0388C114.304 31.0531 115.237 31.8851 115.248 33.1742C115.28 36.8223 115.278 40.4711 115.25 44.1192C115.24 45.3643 114.315 46.2402 112.964 46.2546C109.514 46.2913 106.063 46.2835 102.613 46.2605C101.449 46.2528 100.661 45.4954 100.498 44.3476C100.463 44.0966 100.441 43.8414 100.44 43.5881C100.435 40.3074 100.443 37.0266 100.428 33.7459C100.421 32.1377 101.102 30.927 103.153 31.0145C105.383 31.1095 107.62 31.0361 109.939 31.0361ZM111.044 41.5951C111.052 39.757 111.049 37.9188 111.074 36.0809C111.082 35.5586 110.863 35.3872 110.365 35.3923C108.724 35.4089 107.084 35.4146 105.443 35.3913C104.878 35.3833 104.709 35.6158 104.717 36.1505C104.738 37.7907 104.755 39.4321 104.711 41.0714C104.692 41.7747 104.973 41.9361 105.611 41.9218C107.138 41.8876 108.665 41.9145 110.193 41.9081C110.466 41.907 110.767 41.9827 111.044 41.5951Z" fill="#0087C0"/>
<path d="M71.3417 31.036C73.0073 30.8187 74.0104 32.0897 73.9876 33.5637C73.9351 36.9565 73.9738 40.3506 73.9687 43.7441C73.9663 45.3647 73.084 46.2598 71.4493 46.2664C68.1123 46.2799 64.7753 46.2788 61.4384 46.2697C59.8862 46.2655 59.0762 45.4531 59.0747 43.9284C59.0712 40.3652 59.0704 36.802 59.0749 33.2388C59.0768 31.7744 59.8013 31.0403 61.2497 31.0379C64.5867 31.0325 67.9236 31.0361 71.3417 31.036ZM64.512 41.9111C65.9804 41.9111 67.4491 41.8929 68.9169 41.9199C69.5107 41.9308 69.7994 41.7698 69.7874 41.114C69.7569 39.4485 69.7614 37.7819 69.7859 36.1162C69.7942 35.5507 69.5618 35.3815 69.0294 35.3878C67.3637 35.4075 65.6972 35.4132 64.0316 35.3853C63.4293 35.3752 63.2511 35.6122 63.2613 36.187C63.2889 37.7396 63.3209 39.2953 63.2507 40.8452C63.2109 41.7217 63.505 42.0493 64.512 41.9111Z" fill="#0087C0"/>
<path d="M59.0732 58.6229C59.0734 56.8686 59.067 55.1991 59.0757 53.5298C59.0832 52.1021 59.9164 51.2636 61.3424 51.2605C64.7378 51.253 68.1332 51.2518 71.5286 51.2605C72.9863 51.2642 73.9441 52.1622 73.9566 53.6281C73.9861 57.0798 73.9915 60.5322 73.9519 63.9838C73.934 65.5412 72.9038 66.4903 71.3414 66.4961C68.0592 66.5083 64.7769 66.5073 61.4948 66.4953C59.9804 66.4898 59.0804 65.5695 59.0752 64.0557C59.0691 62.2731 59.0734 60.4905 59.0732 58.6229ZM67.8748 55.4588C66.6013 55.459 65.3273 55.478 64.0543 55.451C63.4642 55.4385 63.2532 55.6673 63.2612 56.2503C63.2847 57.948 63.2868 59.6466 63.2617 61.3443C63.2529 61.935 63.4751 62.1473 64.0578 62.1389C65.6423 62.116 67.228 62.1065 68.812 62.1436C69.4616 62.1587 69.6433 61.9038 69.6311 61.2958C69.6025 59.8813 69.6298 58.4658 69.6244 57.0508C69.6176 55.2203 69.7756 55.4809 67.8748 55.4588Z" fill="#0087C0"/>
<path d="M110.789 51.2578C111.582 51.2579 112.29 51.2517 112.997 51.2593C114.295 51.2733 115.234 52.1132 115.245 53.4019C115.277 56.9693 115.281 60.5375 115.246 64.1049C115.232 65.4797 114.16 66.4861 112.769 66.494C109.428 66.5133 106.087 66.5095 102.746 66.4907C101.617 66.4844 100.758 65.7366 100.534 64.6321C100.467 64.3019 100.426 63.9604 100.425 63.6239C100.418 60.4526 100.417 57.2812 100.427 54.1099C100.43 53.3101 100.515 52.5213 101.12 51.9034C101.583 51.4309 102.142 51.2466 102.804 51.2506C105.437 51.2664 108.071 51.2576 110.789 51.2578ZM104.609 60.7475C104.65 62.1309 104.65 62.1313 106.014 62.1316C107.342 62.1319 108.671 62.0906 109.996 62.1464C110.762 62.1786 110.989 61.8832 110.963 61.1666C110.926 60.1229 110.957 59.0768 110.958 58.0317C110.959 57.1975 110.959 56.3632 110.959 55.4619C108.945 55.4619 107.057 55.4664 105.169 55.4584C104.755 55.4567 104.648 55.6566 104.647 56.0377C104.642 57.5615 104.615 59.0853 104.609 60.7475Z" fill="#0087C0"/>
<path d="M80.6321 65.8545C80.018 65.2326 79.795 64.5402 79.7988 63.7325C79.8142 60.4203 79.8008 57.108 79.8077 53.7958C79.8113 52.0753 80.6371 51.2594 82.3551 51.2581C85.5541 51.2559 88.7531 51.2546 91.9521 51.2578C93.6321 51.2596 94.5211 52.1368 94.525 53.8168C94.5329 57.1574 94.5317 60.4979 94.5247 63.8385C94.5211 65.5534 93.5615 66.4978 91.8266 66.5007C88.7409 66.5057 85.655 66.4913 82.5694 66.5086C81.8575 66.5126 81.2312 66.3451 80.6321 65.8545ZM84.1525 61.3553C84.1179 61.9342 84.386 62.1496 84.9656 62.1394C86.4612 62.113 87.9578 62.1144 89.4535 62.1387C89.9983 62.1475 90.2277 61.9372 90.2259 61.4021C90.22 59.6523 90.2214 57.9024 90.2312 56.1525C90.2339 55.6548 90.0264 55.4473 89.5176 55.4534C87.9653 55.4722 86.4124 55.4787 84.8603 55.4533C84.2965 55.4441 84.1303 55.6679 84.1379 56.2042C84.1617 57.8693 84.1476 59.5349 84.1525 61.3553Z" fill="#0087C0"/>
<path d="M94.3476 44.8074C93.8385 45.8901 92.982 46.2693 91.9088 46.2697C88.7404 46.2708 85.572 46.2811 82.4036 46.2658C80.8203 46.2581 79.8162 45.2401 79.8106 43.6482C79.7989 40.2818 79.7981 36.9153 79.8117 33.549C79.8179 32.0037 80.8216 31.0394 82.386 31.0374C85.5827 31.0333 88.7794 31.0328 91.9761 31.0377C93.5535 31.0401 94.5197 31.9842 94.5253 33.5615C94.5374 36.9561 94.5272 40.3509 94.5291 43.7456C94.5293 44.0879 94.5118 44.4241 94.3476 44.8074ZM84.1634 36.1683C84.1636 37.8343 84.1717 39.5004 84.159 41.1663C84.1555 41.6281 84.2445 41.9224 84.8018 41.916C86.4393 41.8971 88.0772 41.9047 89.7149 41.9104C90.1345 41.9118 90.3391 41.7373 90.3377 41.3055C90.3321 39.5548 90.3297 37.8041 90.3395 36.0534C90.3421 35.5853 90.1397 35.3942 89.6766 35.3971C88.0389 35.4074 86.4011 35.4063 84.7634 35.3989C84.3311 35.3969 84.1388 35.5911 84.1634 36.1683Z" fill="#0087C0"/>
</svg>
