<svg width="128" height="128" viewBox="0 0 128 128" fill="none" xmlns="http://www.w3.org/2000/svg">
<path d="M64.6297 52.9045C69.202 52.9045 72.101 55.9691 72.101 61.9912C72.101 65.4544 71.1417 68.6069 69.4574 70.661C75.3658 71.7915 80.0349 74.803 82.6012 77.3377C80.7165 78.7511 76.9472 81.7801 76.9472 85.0109V85.3556C80.5263 81.2571 83.5209 80.1718 87.2494 79.8874C86.1987 78.4123 85.6064 76.2949 85.6064 73.9857C85.6064 69.6498 87.6938 67.4432 90.9859 67.4432C94.278 67.4432 96.5105 69.6498 96.5105 73.9857C96.5105 76.2318 95.9108 78.2961 94.8757 79.7647C94.9491 79.7631 95.0229 79.7626 95.097 79.7608C101.72 79.5992 104.857 85.6167 105.597 88.6456C100.549 94.2995 98.1259 94.7034 94.4912 96.3188C91.5833 97.6111 81.4332 97.7996 76.7216 97.7323H52.3121C47.6005 97.7996 37.4503 97.6111 34.5425 96.3188C30.9078 94.7034 28.4847 94.2995 23.4365 88.6456C24.1769 85.6167 27.3135 79.5992 33.9367 79.7608C34.0107 79.7626 34.0843 79.7631 34.1576 79.7647C33.1226 78.2961 32.5233 76.2317 32.5232 73.9857C32.5232 69.6499 34.7558 67.4433 38.0478 67.4432C41.3399 67.4432 43.4273 69.6498 43.4273 73.9857C43.4273 76.2949 42.835 78.4123 41.7843 79.8874C45.5211 80.1725 48.5205 81.2622 52.1102 85.3832V85.0109C52.1102 83.5974 50.6967 81.1743 46.0524 77.3377C50.7876 73.5495 55.4188 71.5199 59.7373 70.6784C57.9874 68.6247 56.9564 65.4639 56.9564 61.9912C56.9564 55.9691 60.0573 52.9045 64.6297 52.9045Z" fill="#001757"/>
<path d="M61.6009 75.9241L64.226 73.501L67.0529 75.9241L65.8414 76.9338L67.4568 91.0687L64.226 94.5014L60.9951 91.0687L62.8125 76.9338L61.6009 75.9241Z" fill="#0087C0"/>
<path d="M36.4987 83.3333L37.9753 81.982L39.5655 83.3333L38.884 83.8964L39.7926 91.7793L37.9753 93.6938L36.158 91.7793L37.1802 83.8964L36.4987 83.3333Z" fill="#0087C0"/>
<path d="M90.2114 83.3333L91.6879 81.982L93.2781 83.3333L92.5966 83.8964L93.5053 91.7793L91.6879 93.6938L89.8706 91.7793L90.8929 83.8964L90.2114 83.3333Z" fill="#0087C0"/>
<path d="M49.8889 71.5831C48.6155 72.2937 47.335 73.1095 46.0515 74.0394L46.0523 73.9858C46.0523 71.4323 45.4398 69.1081 43.9687 67.3845C42.4475 65.602 40.3133 64.8182 38.0478 64.8182C35.7899 64.8182 33.6398 65.5952 32.0866 67.347C31.3822 68.1415 30.8609 69.0688 30.5039 70.0935V40.385H49.8889V71.5831Z" fill="#89CFE8"/>
<path d="M74.1204 57.3776C73.6881 55.9009 73.0164 54.5865 72.0766 53.4854C70.2514 51.3467 67.7007 50.3428 64.9015 50.2822L64.6298 50.2794C61.7318 50.2794 59.0447 51.2708 57.1143 53.4479C55.9498 54.7612 55.1668 56.3869 54.7354 58.2421V30.6925H74.1204V57.3776Z" fill="#0083BC"/>
<path d="M98.3513 69.6238C98.0062 68.7844 97.542 68.0182 96.9469 67.347C95.3937 65.5951 93.2436 64.8182 90.9857 64.8182C88.7202 64.8182 86.586 65.602 85.0647 67.3845C83.5937 69.1081 82.9812 71.4323 82.9812 73.9857C82.9812 74.0415 82.9818 74.0972 82.9824 74.153C81.8477 73.2155 80.4994 72.2729 78.9663 71.4057V21H98.3513V69.6238Z" fill="#085CB4"/>
<path d="M126.217 79.5588C126.217 93.3875 98.5531 104.598 64.4276 104.598C30.3021 104.598 2.63794 93.3875 2.63794 79.5588C2.63794 79.4725 2.63973 79.3863 2.64188 79.3001C11.1706 91.8795 35.6092 97.5304 64.4276 97.5304C93.2459 97.5304 117.684 91.8794 126.213 79.3001C126.215 79.3863 126.217 79.4725 126.217 79.5588Z" fill="#0087C0"/>
</svg>
